<svg xmlns="http://www.w3.org/2000/svg" viewBox="0 0 750 300"><defs><style>.cls-1{fill:#aab543;}.cls-2{fill:#9aad21;}.cls-3{fill:#593004;}.cls-4{fill:#818c15;}.cls-5{fill:#4f2a02;}.cls-6{fill:#5f3801;}</style></defs><title>large branch</title><g id="large_abstract_branch" data-name="large abstract branch"><polygon class="cls-1" points="689.47 67.12 750 144.57 680.07 102.75 689.47 67.12"/><polygon class="cls-2" points="750 144.57 716.18 196.6 642.67 244.49 671.34 217.8 750 144.57"/><polygon class="cls-3" points="750 144.57 671.34 217.8 651.99 210.92 651.51 210.97 680.07 102.75 750 144.57"/><polygon class="cls-4" points="689.47 67.12 680.07 102.75 679.65 102.5 668.04 91.39 667.61 91.34 689.47 67.12"/><polygon class="cls-2" points="689.47 67.12 667.61 91.34 542.36 75.25 689.47 67.12"/><polygon class="cls-5" points="680.07 102.75 651.51 210.97 549.79 221.87 667.61 91.34 668.04 91.39 679.65 102.5 680.07 102.75"/><polygon class="cls-4" points="671.34 217.8 642.67 244.49 651.51 210.97 651.99 210.92 671.34 217.8"/><polygon class="cls-6" points="542.36 75.25 667.61 91.34 549.79 221.87 542.36 75.25"/><polygon class="cls-2" points="651.51 210.97 642.67 244.49 549.79 221.87 651.51 210.97"/><polygon class="cls-5" points="542.36 75.25 549.79 221.87 511.77 242.42 542.36 75.25"/><polygon class="cls-4" points="549.79 221.87 502.88 290.99 511.77 242.42 549.79 221.87"/><polygon class="cls-3" points="542.36 75.25 511.77 242.42 494.48 258.43 446.88 73.85 542.36 75.25"/><polygon class="cls-1" points="542.36 75.25 446.88 73.85 436.24 32.59 542.36 75.25"/><polygon class="cls-2" points="511.77 242.42 502.88 290.99 494.48 258.43 511.77 242.42"/><polygon class="cls-1" points="494.48 258.43 502.88 290.99 418.3 250.43 494.48 258.43"/><polygon class="cls-6" points="446.88 73.85 494.48 258.43 418.3 250.43 434.02 59.49 434.03 59.49 446.74 73.85 446.88 73.85"/><polygon class="cls-4" points="436.24 32.59 446.88 73.85 446.74 73.85 434.03 59.49 436.24 32.59"/><polygon class="cls-2" points="436.24 32.59 434.03 59.49 434.02 59.49 326.22 91.72 436.24 32.59"/><polygon class="cls-3" points="434.02 59.49 418.3 250.43 326.22 91.72 434.02 59.49"/><polygon class="cls-5" points="326.22 91.72 418.3 250.43 342.21 225.11 326.22 91.72"/><polygon class="cls-2" points="418.3 250.43 348.2 275.14 342.21 225.12 342.21 225.11 418.3 250.43"/><polygon class="cls-1" points="342.21 225.12 348.2 275.14 333.5 240.34 342.21 225.12"/><polygon class="cls-4" points="333.5 240.34 348.2 275.14 198.7 220.8 333.5 240.34"/><polygon class="cls-3" points="342.21 225.11 342.21 225.12 333.5 240.34 256.53 58.16 326.22 91.72 342.21 225.11"/><polygon class="cls-6" points="256.53 58.16 333.5 240.34 198.7 220.8 198.69 220.8 228.55 48.9 256.53 58.16"/><polygon class="cls-4" points="326.22 91.72 256.53 58.16 235.56 8.52 326.22 91.72"/><polygon class="cls-1" points="235.56 8.52 256.53 58.16 228.55 48.9 235.56 8.52"/><polygon class="cls-2" points="235.56 8.52 228.55 48.9 166.4 66.72 235.56 8.52"/><polygon class="cls-5" points="228.55 48.9 198.69 220.8 166.4 66.72 228.55 48.9"/><polygon class="cls-3" points="166.4 66.72 198.69 220.8 0 197.52 166.4 66.72"/><polygon class="cls-5" points="166.4 66.72 0 197.52 0 141.19 166.4 66.72"/></g></svg>