<svg id="small_abstract_branch" data-name="small abstract branch" xmlns="http://www.w3.org/2000/svg" viewBox="0 0 750 300"><defs><style>.cls-1{fill:#4f2a02;}.cls-2{fill:#593004;}.cls-3{fill:#818c15;}.cls-4{fill:#aab543;}.cls-5{fill:#9aad21;}.cls-6{fill:#5f3801;}</style></defs><title>medium branch</title><polygon class="cls-1" points="741.89 130.66 738.62 174.42 684.28 118.57 687.2 117.13 741.89 130.66"/><polygon class="cls-2" points="738.62 174.42 725.01 192.54 641.61 213.95 663.03 126.73 667.05 127.06 684.28 118.57 738.62 174.42"/><polygon class="cls-3" points="741.89 130.66 750 186.12 738.62 174.42 741.89 130.66"/><polygon class="cls-4" points="738.62 174.42 750 186.12 725.01 192.54 738.62 174.42"/><polygon class="cls-5" points="725.01 192.54 750 186.12 702.68 222.26 725.01 192.54"/><polygon class="cls-1" points="641.61 213.95 725.01 192.54 702.68 222.26 641.61 213.95"/><polygon class="cls-1" points="513.4 221.54 497.99 103.01 565.13 118.7 534.02 206.8 513.4 221.54"/><polygon class="cls-4" points="513.4 221.54 517.55 253.43 364.82 228.77 513.4 221.54"/><polygon class="cls-3" points="534.02 206.8 517.55 253.43 513.4 221.54 534.02 206.8"/><polygon class="cls-6" points="497.99 103.01 513.4 221.54 364.82 228.77 470.13 96.4 497.66 102.93 497.99 103.01"/><polygon class="cls-3" points="702.68 222.26 683.77 236.71 641.61 213.95 702.68 222.26"/><polygon class="cls-5" points="668.91 102.78 741.89 130.66 687.2 117.13 684.28 118.57 668.91 102.78"/><polygon class="cls-5" points="668.91 102.78 663.03 126.73 565.13 118.7 668.91 102.78"/><polygon class="cls-6" points="565.13 118.7 663.03 126.73 641.61 213.95 565.13 118.7"/><polygon class="cls-3" points="668.91 102.78 684.28 118.57 667.05 127.06 663.03 126.73 668.91 102.78"/><polygon class="cls-5" points="497.66 102.93 470.13 96.4 493.34 67.23 497.99 103.01 497.66 102.93"/><polygon class="cls-2" points="565.13 118.7 641.61 213.95 534.02 206.8 565.13 118.7"/><polygon class="cls-3" points="565.13 118.7 497.99 103.01 493.34 67.23 565.13 118.7"/><polygon class="cls-5" points="517.55 253.43 534.02 206.8 641.61 213.95 517.55 253.43"/><polygon class="cls-4" points="493.34 67.23 470.13 96.4 418.73 89.03 493.34 67.23"/><polygon class="cls-2" points="470.13 96.4 364.82 228.77 418.73 89.03 470.13 96.4"/><polygon class="cls-3" points="387.73 44.88 418.73 89.03 376.3 74.96 387.73 44.88"/><polygon class="cls-1" points="418.73 89.03 364.82 228.77 332.5 217.62 418.73 89.03"/><polygon class="cls-2" points="418.73 89.03 332.5 217.62 323.3 214.44 376.3 74.96 418.73 89.03"/><polygon class="cls-5" points="387.73 44.88 376.3 74.96 343.67 74.96 387.73 44.88"/><polygon class="cls-4" points="387.73 44.88 343.67 74.96 79.08 110.79 299.65 65.26 387.73 44.88"/><polygon class="cls-6" points="376.3 74.96 323.3 214.44 139.35 214.44 343.67 74.96 376.3 74.96"/><polygon class="cls-3" points="364.82 228.77 308.49 253.43 332.5 217.62 364.82 228.77"/><polygon class="cls-2" points="343.67 74.96 139.35 214.44 79.06 110.79 79.08 110.79 343.67 74.96"/><polygon class="cls-5" points="323.3 214.44 332.5 217.62 308.49 253.43 323.3 214.44"/><polygon class="cls-3" points="323.3 214.44 308.49 253.43 139.35 214.44 323.3 214.44"/><polygon class="cls-1" points="79.06 110.79 139.35 214.44 0 182.32 79.06 110.79"/><polygon class="cls-2" points="79.06 110.79 0 182.32 0 127.11 79.06 110.79"/></svg>