<svg id="small_abstract_branch" data-name="small abstract branch" xmlns="http://www.w3.org/2000/svg" viewBox="0 0 750 300"><defs><style>.cls-1{fill:#5f3801;}.cls-2{fill:#aab543;}.cls-3{fill:#4f2a02;}.cls-4{fill:#9aad21;}.cls-5{fill:#593004;}.cls-6{fill:#818c15;}</style></defs><title>small branch</title><polygon class="cls-1" points="744.26 169.26 629.61 166.21 710.96 133.24 744.43 168.69 744.26 169.26"/><polygon class="cls-2" points="750 150.37 744.43 168.69 710.96 133.24 750 150.37"/><polygon class="cls-1" points="267.71 202.53 235.86 81.42 317.37 84.22 284.98 184.37 284.97 184.38 267.71 202.53"/><polygon class="cls-2" points="272.82 221.95 267.71 202.53 284.97 184.38 272.82 221.95"/><polygon class="cls-3" points="222.56 87.24 235.86 81.42 267.71 202.53 199.2 166.21 222.56 87.24"/><polygon class="cls-4" points="317.37 84.22 235.86 81.42 230.41 60.71 317.37 84.22"/><polygon class="cls-1" points="199.2 166.21 0 189.95 0 148.28 199.2 166.21"/><polygon class="cls-4" points="222.56 87.24 207.52 69.41 230.41 60.71 222.56 87.24"/><polygon class="cls-5" points="710.96 133.24 629.61 166.21 616.71 134.39 710.96 133.24"/><polygon class="cls-1" points="401.15 87.24 420.84 237.6 317.37 84.22 401.14 87.24 401.15 87.24"/><polygon class="cls-6" points="267.71 202.53 272.82 221.95 199.2 166.21 267.71 202.53"/><polygon class="cls-6" points="427.57 166.21 433.99 188.47 420.84 237.6 427.57 166.21"/><polygon class="cls-1" points="514.11 81.87 499.68 164.08 459.5 154.54 514.11 81.87"/><polygon class="cls-5" points="514.11 81.87 459.5 154.54 459.49 154.54 427.57 166.21 404.75 87.07 514.11 81.87"/><polygon class="cls-6" points="612.07 122.94 612.06 122.97 612 122.97 612.07 122.94"/><polygon class="cls-2" points="235.86 81.42 222.56 87.24 230.41 60.71 235.86 81.42"/><polygon class="cls-4" points="404.75 87.07 401.15 87.24 401.14 87.24 398.1 63.99 404.75 87.07"/><polygon class="cls-5" points="586.96 132.13 604.81 138.26 577.4 196.07 577.39 196.07 499.68 164.08 586.96 132.13"/><polygon class="cls-3" points="514.11 81.87 586.96 132.13 499.68 164.08 514.11 81.87"/><polygon class="cls-2" points="398.1 63.99 401.14 87.24 317.37 84.22 398.1 63.99"/><polygon class="cls-4" points="616.71 134.39 604.81 138.26 612.06 122.97 612.08 122.97 616.71 134.39"/><polygon class="cls-4" points="612 122.97 586.96 132.13 514.11 81.87 611.37 122.9 612 122.97"/><polygon class="cls-2" points="612.07 122.94 612.08 122.97 612.06 122.97 612.07 122.94"/><polygon class="cls-5" points="317.37 84.22 420.84 237.6 284.98 184.37 317.37 84.22"/><polygon class="cls-2" points="459.49 154.54 433.99 188.47 427.57 166.21 459.49 154.54"/><polygon class="cls-4" points="744.26 169.26 739.49 184.97 629.61 166.21 744.26 169.26"/><polygon class="cls-4" points="420.84 237.6 272.82 221.95 284.97 184.38 284.98 184.37 420.84 237.6"/><polygon class="cls-1" points="577.4 196.07 604.81 138.26 616.71 134.39 629.61 166.21 577.4 196.07"/><polygon class="cls-2" points="577.39 196.07 569.39 212.95 499.68 164.08 577.39 196.07"/><polygon class="cls-3" points="401.15 87.24 404.75 87.07 427.57 166.21 420.84 237.6 401.15 87.24"/><polygon class="cls-6" points="612.06 122.97 604.81 138.26 586.96 132.13 612 122.97 612.06 122.97"/><polygon class="cls-4" points="459.5 154.54 499.68 164.08 433.99 188.47 459.49 154.54 459.5 154.54"/><polygon class="cls-5" points="207.52 69.41 222.56 87.24 199.2 166.21 0 148.28 207.52 69.41"/><polygon class="cls-6" points="404.75 87.07 398.1 63.99 514.11 81.87 404.75 87.07"/><polygon class="cls-6" points="577.4 196.07 629.61 166.21 569.39 212.95 577.39 196.07 577.4 196.07"/><polygon class="cls-6" points="710.96 133.24 616.71 134.39 612.08 122.97 710.96 133.24"/></svg>