<svg id="Layer_1" data-name="Layer 1" xmlns="http://www.w3.org/2000/svg" viewBox="0 0 500 150"><defs><style>.cls-1{fill:#fff;}.cls-2{fill:none;stroke:#fff;stroke-linecap:round;stroke-linejoin:round;stroke-width:3px;}.cls-3{opacity:0.6;}.cls-4{fill:#841653;}.cls-5{fill:#751249;}.cls-6{fill:#650e3f;}.cls-7{fill:#550a34;}.cls-8{fill:#fbc100;}.cls-9{fill:#931959;}</style></defs><title>instructions</title><path class="cls-1" d="M75.6,35.35s.17-16.94.94-22.89c.83-6.45,1.81-7,2.9-6.87s1.9.92,1.07,7.38C79.74,18.92,75.6,35.35,75.6,35.35Z"/><path class="cls-1" d="M48.9,41.34s-10.76-13.09-14-18.13c-3.51-5.48-3.12-6.53-2.19-7.12s2-.51,5.56,5C41.51,26.1,48.9,41.34,48.9,41.34Z"/><path class="cls-1" d="M32.31,63.1S15.65,60,9.93,58.2c-6.21-1.94-6.59-3-6.26-4.05s1.24-1.71,7.45.23C16.84,56.17,32.31,63.1,32.31,63.1Z"/><path class="cls-1" d="M102.28,99.29s14.59,8.62,19.35,12.25c5.17,3.95,5.16,5.07,4.49,5.95s-1.75,1.18-6.92-2.77C114.44,111.09,102.28,99.29,102.28,99.29Z"/><path class="cls-1" d="M110.44,73.17s16.71-2.78,22.7-3.05c6.5-.3,7.21.56,7.27,1.67s-.58,2-7.08,2.33C127.34,74.39,110.44,73.17,110.44,73.17Z"/><path class="cls-1" d="M99.91,47.92s11-12.87,15.43-16.93c4.79-4.41,5.89-4.21,6.64-3.39s.86,1.93-3.93,6.34C113.63,38,99.91,47.92,99.91,47.92Z"/><path class="cls-2" d="M66.74,144.42c2.5-4,4.75-7.59,6.52-10.38,8.08-12.75,20.52-35.47,24.51-54.79,1.14-5.53,2.45-15.23-6.33-22.56s-22.65-7.9-30.82-3.6S35.46,77.26,23.14,91.49c-3.25,3.75-7.57,10.39-12.61,18.28"/><path class="cls-1" d="M72,58.55h0A24.29,24.29,0,0,1,84.06,61.8c4.18,2.63,6.87,8.07,6.87,13.85,0,5-7.19,18.89-13.78,20.9C73.94,96.51,53,82.43,52,79.68,52,72.2,62,61.25,66.57,59.43A14.79,14.79,0,0,1,72,58.55m0-1a15.73,15.73,0,0,0-5.75,1C61.14,60.53,51,71.94,51,79.74c0,2.7,22.43,17.8,26.17,17.8l.19,0c7.11-2.06,14.58-16.34,14.58-21.88S89.53,64.07,84.6,61A25.17,25.17,0,0,0,72,57.55Z"/><path class="cls-1" d="M424.4,35.35s-.17-16.94-.94-22.89c-.83-6.45-1.81-7-2.9-6.87s-1.9.92-1.07,7.38C420.26,18.92,424.4,35.35,424.4,35.35Z"/><path class="cls-1" d="M451.1,41.34s10.76-13.09,14-18.13c3.51-5.48,3.12-6.53,2.19-7.12s-2-.51-5.56,5C458.49,26.1,451.1,41.34,451.1,41.34Z"/><path class="cls-1" d="M467.69,63.1s16.65-3.11,22.38-4.9c6.21-1.94,6.59-3,6.26-4.05s-1.24-1.71-7.45.23C483.16,56.17,467.69,63.1,467.69,63.1Z"/><path class="cls-1" d="M397.72,99.29s-14.59,8.62-19.35,12.25c-5.17,3.95-5.16,5.07-4.49,5.95s1.75,1.18,6.92-2.77C385.56,111.09,397.72,99.29,397.72,99.29Z"/><path class="cls-1" d="M389.56,73.17s-16.71-2.78-22.7-3.05c-6.5-.3-7.21.56-7.27,1.67s.58,2,7.08,2.33C372.66,74.39,389.56,73.17,389.56,73.17Z"/><path class="cls-1" d="M400.09,47.92s-11-12.87-15.43-16.93c-4.79-4.41-5.89-4.21-6.64-3.39s-.86,1.93,3.93,6.34C386.37,38,400.09,47.92,400.09,47.92Z"/><path class="cls-2" d="M489.47,109.77c-5-7.89-9.37-14.53-12.61-18.28-12.31-14.23-29.3-34.08-37.47-38.39s-22-3.73-30.82,3.6-7.47,17-6.33,22.56c4,19.32,16.44,42,24.51,54.79,1.77,2.79,4,6.34,6.52,10.38"/><path class="cls-1" d="M428,58.55h0a14.78,14.78,0,0,1,5.38.89C438,61.25,448,72.2,448,79.68c-1,2.75-21.91,16.81-25.15,16.86-6.59-2-13.79-15.88-13.79-20.9,0-5.78,2.7-11.21,6.87-13.85A24.3,24.3,0,0,1,428,58.55m0-1A25.18,25.18,0,0,0,415.4,61c-4.94,3.11-7.34,9.15-7.34,14.69s7.48,19.82,14.58,21.88l.19,0c3.74,0,26.17-15.1,26.17-17.8,0-7.8-10.15-19.21-15.21-21.23a15.73,15.73,0,0,0-5.75-1Z"/><g class="cls-3"><path class="cls-4" d="M318.25,63.16S332,70.07,332,75.16c0,2.64-4.3,5.8-6.17,5.88-.71,1.77-5.1,6.12-8.38,6.12"/><path class="cls-5" d="M318.25,63.16s11.25,7.22,11.25,12c0,2.27-3.15,4.89-4.66,4.88,0,1.68-4.12,6.55-7.38,7.12"/><path class="cls-6" d="M318.25,63.16s8.75,7.52,8.75,12c0,1.37-1.63,3.7-3,4.07,0,1.39-3.31,6.86-6.58,7.93"/><path class="cls-7" d="M318.25,63.16s6.25,7.94,6.25,12c0,1.37-.33,2.87-1.07,3.47,0,1.39-2.71,7.46-6,8.53"/><path class="cls-4" d="M251.75,63.16S238,70.07,238,75.16c0,2.64,4.3,5.8,6.17,5.88.71,1.77,5.1,6.12,8.38,6.12"/><path class="cls-5" d="M251.75,63.16s-11.25,7.22-11.25,12c0,2.27,3.15,4.89,4.66,4.88,0,1.68,4.12,6.55,7.38,7.12"/><path class="cls-6" d="M251.75,63.16s-8.75,7.52-8.75,12c0,1.37,1.63,3.7,3,4.07,0,1.39,3.31,6.86,6.58,7.93"/><path class="cls-7" d="M251.75,63.16s-6.25,7.94-6.25,12c0,1.37.33,2.87,1.07,3.47,0,1.39,2.71,7.46,6,8.53"/><path class="cls-8" d="M279.45,111.92a1.46,1.46,0,0,1-1.46-1.46v-3.62a1.46,1.46,0,0,1,2.92,0v3.62A1.46,1.46,0,0,1,279.45,111.92Z"/><path class="cls-9" d="M279.45,105.51a1.33,1.33,0,0,1,1.33,1.33v3.62a1.33,1.33,0,0,1-2.67,0v-3.62a1.33,1.33,0,0,1,1.33-1.33m0-.25a1.59,1.59,0,0,0-1.58,1.58v3.62a1.58,1.58,0,0,0,3.17,0v-3.62a1.59,1.59,0,0,0-1.58-1.58Z"/><path class="cls-8" d="M276.53,111.92a1.46,1.46,0,0,1-1.46-1.46v-3.62a1.46,1.46,0,0,1,2.92,0v3.62A1.46,1.46,0,0,1,276.53,111.92Z"/><path class="cls-9" d="M276.53,105.51a1.33,1.33,0,0,1,1.33,1.33v3.62a1.33,1.33,0,0,1-2.67,0v-3.62a1.33,1.33,0,0,1,1.33-1.33m0-.25a1.59,1.59,0,0,0-1.58,1.58v3.62a1.58,1.58,0,0,0,3.17,0v-3.62a1.59,1.59,0,0,0-1.58-1.58Z"/><path class="cls-8" d="M273.61,111.92a1.46,1.46,0,0,1-1.46-1.46v-3.62a1.46,1.46,0,0,1,2.92,0v3.62A1.46,1.46,0,0,1,273.61,111.92Z"/><path class="cls-9" d="M273.61,105.51a1.33,1.33,0,0,1,1.33,1.33v3.62a1.33,1.33,0,0,1-2.67,0v-3.62a1.33,1.33,0,0,1,1.33-1.33m0-.25a1.59,1.59,0,0,0-1.58,1.58v3.62a1.58,1.58,0,0,0,3.17,0v-3.62a1.59,1.59,0,0,0-1.58-1.58Z"/><path class="cls-8" d="M290.54,111.92a1.46,1.46,0,0,1-1.46-1.46v-3.62a1.46,1.46,0,0,1,2.92,0v3.62A1.46,1.46,0,0,1,290.54,111.92Z"/><path class="cls-9" d="M290.54,105.51a1.33,1.33,0,0,1,1.33,1.33v3.62a1.33,1.33,0,0,1-2.67,0v-3.62a1.33,1.33,0,0,1,1.33-1.33m0-.25a1.59,1.59,0,0,0-1.58,1.58v3.62a1.58,1.58,0,0,0,3.17,0v-3.62a1.59,1.59,0,0,0-1.58-1.58Z"/><path class="cls-8" d="M293.46,111.92a1.46,1.46,0,0,1-1.46-1.46v-3.62a1.46,1.46,0,0,1,2.92,0v3.62A1.46,1.46,0,0,1,293.46,111.92Z"/><path class="cls-9" d="M293.46,105.51a1.33,1.33,0,0,1,1.33,1.33v3.62a1.33,1.33,0,0,1-2.67,0v-3.62a1.33,1.33,0,0,1,1.33-1.33m0-.25a1.59,1.59,0,0,0-1.58,1.58v3.62a1.58,1.58,0,0,0,3.17,0v-3.62a1.59,1.59,0,0,0-1.58-1.58Z"/><path class="cls-8" d="M296.38,111.92a1.46,1.46,0,0,1-1.46-1.46v-3.62a1.46,1.46,0,0,1,2.92,0v3.62A1.46,1.46,0,0,1,296.38,111.92Z"/><path class="cls-9" d="M296.38,105.51a1.33,1.33,0,0,1,1.33,1.33v3.62a1.33,1.33,0,0,1-2.67,0v-3.62a1.33,1.33,0,0,1,1.33-1.33m0-.25a1.59,1.59,0,0,0-1.58,1.58v3.62a1.58,1.58,0,0,0,3.17,0v-3.62a1.59,1.59,0,0,0-1.58-1.58Z"/><path class="cls-9" d="M259.52,50A35,35,0,1,0,285,39c-12.89,0-16.35,3.39-19.58,2.95s-8.44-1.42-6.4.53S262,46.86,259.52,50Z"/></g><g class="cls-3"><path class="cls-4" d="M248.25,63.16S262,70.07,262,75.16c0,2.64-4.3,5.8-6.17,5.88-.71,1.77-5.1,6.12-8.38,6.12"/><path class="cls-5" d="M248.25,63.16s11.25,7.22,11.25,12c0,2.27-3.15,4.89-4.66,4.88,0,1.68-4.12,6.55-7.38,7.12"/><path class="cls-6" d="M248.25,63.16s8.75,7.52,8.75,12c0,1.37-1.63,3.7-3,4.07,0,1.39-3.31,6.86-6.58,7.93"/><path class="cls-7" d="M248.25,63.16s6.25,7.94,6.25,12c0,1.37-.33,2.87-1.07,3.47,0,1.39-2.71,7.46-6,8.53"/><path class="cls-4" d="M181.75,63.16S168,70.07,168,75.16c0,2.64,4.3,5.8,6.17,5.88.71,1.77,5.1,6.12,8.38,6.12"/><path class="cls-5" d="M181.75,63.16s-11.25,7.22-11.25,12c0,2.27,3.15,4.89,4.66,4.88,0,1.68,4.12,6.55,7.38,7.12"/><path class="cls-6" d="M181.75,63.16s-8.75,7.52-8.75,12c0,1.37,1.63,3.7,3,4.07,0,1.39,3.31,6.86,6.58,7.93"/><path class="cls-7" d="M181.75,63.16s-6.25,7.94-6.25,12c0,1.37.33,2.87,1.07,3.47,0,1.39,2.71,7.46,6,8.53"/><path class="cls-8" d="M209.45,111.92a1.46,1.46,0,0,1-1.46-1.46v-3.62a1.46,1.46,0,0,1,2.92,0v3.62A1.46,1.46,0,0,1,209.45,111.92Z"/><path class="cls-9" d="M209.45,105.51a1.33,1.33,0,0,1,1.33,1.33v3.62a1.33,1.33,0,0,1-2.67,0v-3.62a1.33,1.33,0,0,1,1.33-1.33m0-.25h0a1.59,1.59,0,0,0-1.58,1.58v3.62a1.59,1.59,0,0,0,1.58,1.58h0a1.59,1.59,0,0,0,1.58-1.58v-3.62a1.59,1.59,0,0,0-1.58-1.58Z"/><path class="cls-8" d="M206.53,111.92a1.46,1.46,0,0,1-1.46-1.46v-3.62a1.46,1.46,0,0,1,2.92,0v3.62A1.46,1.46,0,0,1,206.53,111.92Z"/><path class="cls-9" d="M206.53,105.51a1.33,1.33,0,0,1,1.33,1.33v3.62a1.33,1.33,0,0,1-2.67,0v-3.62a1.33,1.33,0,0,1,1.33-1.33m0-.25a1.59,1.59,0,0,0-1.58,1.58v3.62a1.58,1.58,0,0,0,3.17,0v-3.62a1.59,1.59,0,0,0-1.58-1.58Z"/><path class="cls-8" d="M203.61,111.92a1.46,1.46,0,0,1-1.46-1.46v-3.62a1.46,1.46,0,0,1,2.92,0v3.62A1.46,1.46,0,0,1,203.61,111.92Z"/><path class="cls-9" d="M203.61,105.51a1.33,1.33,0,0,1,1.33,1.33v3.62a1.33,1.33,0,0,1-2.67,0v-3.62a1.33,1.33,0,0,1,1.33-1.33m0-.25a1.59,1.59,0,0,0-1.58,1.58v3.62a1.58,1.58,0,0,0,3.17,0v-3.62a1.59,1.59,0,0,0-1.58-1.58Z"/><path class="cls-8" d="M220.54,111.92a1.46,1.46,0,0,1-1.46-1.46v-3.62a1.46,1.46,0,0,1,2.92,0v3.62A1.46,1.46,0,0,1,220.54,111.92Z"/><path class="cls-9" d="M220.54,105.51a1.33,1.33,0,0,1,1.33,1.33v3.62a1.33,1.33,0,0,1-2.67,0v-3.62a1.33,1.33,0,0,1,1.33-1.33m0-.25a1.59,1.59,0,0,0-1.58,1.58v3.62a1.58,1.58,0,0,0,3.17,0v-3.62a1.59,1.59,0,0,0-1.58-1.58Z"/><path class="cls-8" d="M223.46,111.92a1.46,1.46,0,0,1-1.46-1.46v-3.62a1.46,1.46,0,0,1,2.92,0v3.62A1.46,1.46,0,0,1,223.46,111.92Z"/><path class="cls-9" d="M223.46,105.51a1.33,1.33,0,0,1,1.33,1.33v3.62a1.33,1.33,0,0,1-2.67,0v-3.62a1.33,1.33,0,0,1,1.33-1.33m0-.25a1.59,1.59,0,0,0-1.58,1.58v3.62a1.58,1.58,0,0,0,3.17,0v-3.62a1.59,1.59,0,0,0-1.58-1.58Z"/><path class="cls-8" d="M226.38,111.92a1.46,1.46,0,0,1-1.46-1.46v-3.62a1.46,1.46,0,0,1,2.92,0v3.62A1.46,1.46,0,0,1,226.38,111.92Z"/><path class="cls-9" d="M226.38,105.51a1.33,1.33,0,0,1,1.33,1.33v3.62a1.33,1.33,0,0,1-2.67,0v-3.62a1.33,1.33,0,0,1,1.33-1.33m0-.25a1.59,1.59,0,0,0-1.58,1.58v3.62a1.58,1.58,0,0,0,3.17,0v-3.62a1.59,1.59,0,0,0-1.58-1.58Z"/><path class="cls-9" d="M189.52,50A35,35,0,1,0,215,39c-12.89,0-16.35,3.39-19.58,2.95s-8.44-1.42-6.4.53S192,46.86,189.52,50Z"/></g></svg>