<svg id="Layer_1" data-name="Layer 1" xmlns="http://www.w3.org/2000/svg" xmlns:xlink="http://www.w3.org/1999/xlink" viewBox="0 0 750 1334"><defs><style>.cls-1{fill:#5f3801;}.cls-2{fill:url(#New_Gradient_Swatch_copy_20);}.cls-3{fill:#9aad21;}.cls-4{fill:#931959;}.cls-5{fill:#fff;}.cls-6{fill:#f4d3e3;}.cls-7{fill:#cfd7de;}.cls-8{fill:none;stroke-width:2px;}.cls-10,.cls-8,.cls-9{stroke:#931959;stroke-miterlimit:10;}.cls-10,.cls-9{fill:#fbc100;}.cls-9{stroke-width:0.5px;}</style><linearGradient id="New_Gradient_Swatch_copy_20" x1="616.27" y1="197.58" x2="616.27" y2="436.17" gradientUnits="userSpaceOnUse"><stop offset="0" stop-color="#fff7dd"/><stop offset="0.17" stop-color="#fff7dd" stop-opacity="0.76"/><stop offset="0.55" stop-color="#fff7dd" stop-opacity="0.18"/><stop offset="0.66" stop-color="#fff7dd" stop-opacity="0"/></linearGradient></defs><title>menu_foreground</title><path class="cls-1" d="M750,1223.67c-22.77,22.69-58.74-18.58-22.58-31.66,20.79-7.52,25.4-51-1.7-68.39-17.76-11.41-49.44-5.93-72.44.08-17,4.46-34.81,2.24-38.93-5.71-3.56-6.87,1.83-14.07,4.23-15.9,4-3,3.19-9.81.08-12.22-2.88-2.23-8.78-2.72-11.1.44-2.08,2.82-1.81,12.82-13.49,10.83-15-2.55-24.09-22.57-22.44-44.23,3-39.4,18.15-43.89,20.56-57.38,1.82-10.19-6.26-22.66-18.19-19.38-5.37,1.48-13.48,8.31-19.86,6.64-4.39-1.14-7.27-7.41-8.29-11.71-1.66-7,.22-15.88-1.42-21.76-2.23-8-13.76-17.27-24.48-18.22-8.64-.77-22.52,4.4-25.15,13-1.45,4.79-.35,10.92.7,15.09A102.81,102.81,0,0,0,499.38,976c3,7.43,8.47,20.43,4.87,28.91-4.7,11.07-20.88,24.69-34.8,20.23-8.75-2.8-2.8-11.95-8.1-21-6.5-11.15-15.6,4.15-25.09,1.79-7-1.74-11.17-9.12-12.76-13-5.13-12.41,1.39-27.63,7.3-39.9,4.46-9.26,15.08-30,7.67-39.37-11.11-14-33.68-7.61-48.94,12.66-5.79,7.69-12.85,15-18.9,23-12.07,15.82-22.18,30.4-44.14,28.91-6.27-.42-12.46-1.29-17.79-5.74-2.88-2.41-9.15-11.1-11-14.76-5.54-10.73-13.91-20.7-27.67-27-15.25-7-24,3.42-31.13,12.45-5.6,7.06-10.64,15.6-16.23,21.06-4.52,4.43-10.34,9.11-16.72,10.24-18,3.21-22.43-17.25-34.61-24.63-9.21-5.58-19-3.38-20.7,3.46-1.93,7.56,5.88,13.42,8.48,18.77a24.37,24.37,0,0,1,0,22c-7.21,14.77-27.79,9.55-38.38,22-12.75,14.95,4.24,30.41,20.67,24.11,8.54-3.28,12.5-12.88,19-20.6,5.59-6.67,15.73-13.77,25-12.09,7.11,1.28,11.16,7,12.83,12.47,4.46,14.66-4.24,28-11.75,35.89-24.26,25.33-58.81,35.9-99.68,35.79-15.69,0-31.49-3.08-41.48,4.6-7.28,5.6-7.75,14.83-1.53,19.84,5.57,4.49,13.32,7.22,22.4,8.52,18.94,2.71,44.81-10.11,57,5.56,10.69,13.68-8,26.67-20,24.17-21.75-4.51-21.88,16.65-17.15,20.68,31.91,27.18-58.51,6.53-46.19,47.36,6.28,20.8-22.49,24.11-39.67,16L0,1334H750Z"/><path class="cls-1" d="M510.17,895.13c8.34-16.71-20.94-45.61-28.55-28.21-1.67,3.82-2.09,5.68-4.26,8.87C467.38,890.51,501.21,913.1,510.17,895.13Z"/><path class="cls-1" d="M206.15,875.1c6.7.87,8.25-5.77,15.73-3.7,9.48,2.6,6.44,12.39,7.54,20,.66,4.59,3.4,11,7.2,14,8.86,7.13,26.6,2.12,31.65-3.27,3-3.16,4-8.47,4.06-13,.1-4.89-1-9.51-4-11.65-9-6.64-21.94,1.79-31-5.77-5.28-4.4-4.74-15.13-10.36-19.61-11.51-9.15-31.52,1.12-30.22,13.57C197.12,868.92,200.8,874.4,206.15,875.1Z"/><path class="cls-1" d="M674.61,1040.08c4,2.71,17.82,5.12,20,.68,5-10.19-16.17-22.83-22.91-13.07C668.09,1032.93,671.52,1038,674.61,1040.08Z"/><path class="cls-1" d="M634.16,1069.73c16.46,2.4,31.45-8.55,24.19-24.63-9.11-20.2-41.24-10.79-42.21,6.7C615.68,1059.87,625.85,1068.52,634.16,1069.73Z"/><path class="cls-1" d="M0,1041v25.07a15.82,15.82,0,0,0,1.87,1.67c12.18,9,34,6,35.08-10C38.18,1040.37,12.48,1033.78,0,1041Z"/><path id="Cloud" class="cls-2" d="M697.68,309.76h-.08c.05-.71.08-1.43.08-2.15A28.66,28.66,0,0,0,657,281.54a61.48,61.48,0,0,0-119.15,28.22h-3a21.79,21.79,0,1,0,0,43.59H697.68a21.79,21.79,0,1,0,0-43.59Z"/><path class="cls-1" d="M335.72,106.63c.83.07,1.47,2.57,1.94,7.25.24,2.34.43,5.23.59,8.63l.23,5.49.31,6.25c.67,17.63,1.52,43.14,5.21,74.33,1.86,15.58,4.41,32.58,8.18,50.63s8.75,37.15,14.9,57.14c3,10,6.45,20.23,10,30.71l11.1,32.29c7.56,22.11,15.29,45.55,21.39,70.47,3,12.46,5.77,25.23,7.8,38.3,1.16,6.51,1.89,13.13,2.8,19.76.37,3.32.68,6.66,1,10l.5,5c.15,1.68.24,3.36.36,5a520.22,520.22,0,0,1-.67,81.79c-2.23,27.3-6,54.38-10.05,81.12S402.79,744,398.8,770.2s-7.6,52-10.58,77.51-5.21,50.55-6.92,75l-1.18,18.22-.86,18c-.14,3-.31,5.93-.41,8.88l-.27,8.82L378,994l-.23,17.09c-.08,5.64-.19,11.23-.12,16.75.09,11.05,0,21.86.29,32.41l.26,12.68c.09,4.16.13,8.25.32,12.28l.85,23.39c.1,3.77.33,7.47.52,11.11l.55,10.74c.39,7,.61,13.83,1.1,20.38l1.21,18.95.54,9,.65,8.62,2.27,31.25c1.6,19.15,2.57,35.1,3.58,48.33s1.22,23.84,1.47,32.28c.69,33.8-5.39,33.72-11.93,34.75s-12.63.94-22.15-33.18c-4.6-17.09-9.92-42.73-15.37-81.21A1356.13,1356.13,0,0,1,330,1061.13c-.33-10.86-.19-22-.23-33.41,0-5.7.09-11.46.2-17.28l.35-17.64.69-18,.36-9.1c.14-3,.34-6.1.51-9.17L333,938l1.45-18.8c2.08-25.22,4.8-51.06,8.33-77.19s7.76-52.55,12.42-79,9.72-52.88,14.49-79.13,9.12-52.28,12.06-78A498.89,498.89,0,0,0,385,530c-.05-1.56-.07-3.11-.15-4.66l-.28-4.64-.58-9.26c-.61-6.14-1-12.27-1.85-18.33-1.38-12.15-3.44-24.1-5.75-35.89-4.68-23.57-11-46.43-17.39-68.7-3.2-11.14-6.38-22.15-9.41-33s-5.89-21.54-8.41-32.08a583.38,583.38,0,0,1-11.57-60.38,505.24,505.24,0,0,1-4.27-53.13,467,467,0,0,1,3.76-76.14l.87-6.27c.29-2,.65-3.78,1-5.48.64-3.39,1.24-6.24,1.81-8.54C333.9,108.92,334.89,106.56,335.72,106.63Z"/><path class="cls-1" d="M636.95,278.71c.46,1-2.4,3.51-7.75,7.77S616,296.61,606.26,304s-21.2,16.35-33.66,26.66c-6.22,5.16-12.67,10.67-19.18,16.54S540.36,359.35,534.09,366a139.62,139.62,0,0,0-16.85,21l-1.57,2.7c-.5.89-.87,1.77-1.33,2.65L514,393l-.33.8-.66,1.59-1.33,3.19c-.47,1-.86,2.15-1.24,3.27l-1.18,3.32c-.84,2.18-1.47,4.53-2.19,6.81-2.78,9.2-5,18.86-7,28.69s-3.63,19.9-5.31,30c-3.33,20.15-6.56,40.5-11.81,60.18a203,203,0,0,1-10.09,28.46c-3.9,8.86-8.08,16.86-12,24.23l-16.55,30.88-12,23c-1.69,3.26-3.28,6.24-4.77,8.94s-2.8,5.19-4.08,7.4c-2.54,4.43-4.74,7.89-6.61,10.6-7.56,10.8-11.13,9-15.23,7.31s-7.66-3.5-5.18-17.18a110,110,0,0,1,3.24-12.62c1.51-5.07,3.68-11,6.4-18,1.4-3.51,3-7.27,4.73-11.33s3.76-8.37,5.94-13c4.38-9.22,9.78-19.59,15.87-31,3.82-7.2,7.71-14.57,11.16-22.16a184.58,184.58,0,0,0,9-24c5.05-17.32,8.84-36.83,13-57,2.1-10.11,4.28-20.4,6.84-30.74a311.36,311.36,0,0,1,9.3-31c1-2.56,1.83-5.12,3-7.65l1.61-3.79c.53-1.26,1.06-2.52,1.7-3.76l1.83-3.72.91-1.85.46-.92.57-1c.77-1.32,1.52-2.7,2.33-4l2.46-3.64a154.59,154.59,0,0,1,21.53-23.39c7.41-6.73,14.88-12.75,22.21-18.28S555,321,561.92,316.33c13.86-9.23,26.63-16.82,37.57-22.76A234.33,234.33,0,0,1,626,280.86C632.53,278.35,636.5,277.72,636.95,278.71Z"/><path class="cls-1" d="M616.76,604.94c.13.82-1.57,1.88-4.82,3.13-1.63.63-3.66,1.2-6,1.86s-5.13,1.23-8.19,1.72c-6.11,1.08-13.52,1.8-21.51,2.43a250.94,250.94,0,0,0-25.28,3l-3.32.61-3.35.71c-2.25.44-4.51,1-6.79,1.57l-1.71.41-1.59.49-3.19,1c-1.06.28-2.14.72-3.21,1.12l-3.23,1.2a276.12,276.12,0,0,0-26.21,12.61c-8.78,4.65-17.56,9.37-26.1,13.68l-6.37,3.14c-2.09,1-4.16,2-6.24,3l-6.07,2.77c-2,.89-4,1.69-5.9,2.51l-4.56,1.89c-1.48.59-2.94,1.11-4.34,1.63-2.82,1-5.42,2-7.9,2.79s-4.81,1.47-7,2.09l-3.11.87c-1,.25-2,.46-2.91.67-3.73.81-6.85,1.37-9.47,1.71a42.23,42.23,0,0,1-6.5.17c-6.9-.46-7.33-3.44-8.11-6.67s-1.22-6.21,4.44-9.92a47.12,47.12,0,0,1,5.46-3c2.24-1.13,4.93-2.34,8.19-3.64,1.64-.62,3.38-1.4,5.27-2.17s3.94-1.59,6.15-2.43l7.06-2.88c1.26-.51,2.57-1,3.91-1.56l4.14-1.75c1.81-.76,3.67-1.51,5.56-2.33l5.79-2.54c2-.84,4-1.75,6-2.69l6.22-2.83c8.41-3.89,17.31-8.15,26.61-12.37a239.76,239.76,0,0,1,29.46-11.57l3.94-1.09c1.31-.36,2.6-.74,4-1l4-.81,2-.39,1.91-.26c2.54-.35,5-.72,7.57-.94l3.74-.37,3.71-.25a190.11,190.11,0,0,1,27.22.42c8.08.65,15.09,1.3,21,1.67C609,603.12,616.48,603.21,616.76,604.94Z"/><path class="cls-1" d="M548.7,676.9c-.21,0-.41-.16-.7-.45a15.73,15.73,0,0,0-1.16-1.14c-.25-.17-.6-.47-1-.77l-1.12-1L541.91,671c-.52-.46-1-.93-1.6-1.38-.28-.22-.56-.45-.84-.66s-.58-.42-.93-.65c-1.35-.91-2.78-1.88-4.28-2.92-3.07-2-6.52-4.27-10.16-6.34-.91-.51-1.83-1-2.76-1.48s-1.83-.88-2.83-1.31c-2-.85-4.07-1.65-6.19-2.43-4.27-1.52-8.7-2.93-13-4a49.79,49.79,0,0,0-6.14-1.18c-.48-.07-.88-.06-1.31-.11-.22,0-.4,0-.6,0h-.69c-1,0-2.09.07-3.14.12-4.26.22-8.37.52-12.05.82-12.07,1-17.72,1.51-20.54,1.13a6.35,6.35,0,0,1-1.68-.43,3.25,3.25,0,0,1-1-.72,6,6,0,0,1-1.14-2.08,4,4,0,0,1-.41-2.33,3.08,3.08,0,0,1,.68-1.31,6.69,6.69,0,0,1,1.69-1.41c3-1.92,9.33-3.86,21.49-4.82,3.86-.31,8.1-.53,12.65-.6,1.15,0,2.29,0,3.55,0h.46l.55,0c.36,0,.75,0,1.1.07.69.09,1.45.15,2.1.28a55.38,55.38,0,0,1,7.5,1.89,117,117,0,0,1,13.81,5.44c2.22,1,4.39,2.14,6.53,3.34,1.05.59,2.17,1.26,3.17,1.92s2,1.35,2.91,2a109.28,109.28,0,0,1,9.7,8.2c1.4,1.37,2.71,2.68,3.91,3.91.29.29.61.62.9,1s.56.68.82,1c.51.67,1,1.31,1.37,1.92.81,1.24,1.46,2.25,2,3.27q.43.79.76,1.47l.62,1.31C549.53,675.79,549.12,676.91,548.7,676.9Z"/><path class="cls-1" d="M500.95,239.58c1.15,0,2,4.79,3.62,12.4l2.8,13.53a146.38,146.38,0,0,1,2.5,17.5,152.59,152.59,0,0,1,.11,19.88c-.39,6.79-1.22,13.61-2.1,20.14s-1.75,12.75-2.1,18.41c-.16,2.84-.23,5.48-.13,8.11s.27,5.39.43,8c.56,8.44.88,14.89.8,19.74a40.3,40.3,0,0,1-1.12,10.31c-1.31,4.39-3.37,4.25-5.56,4.24a6.08,6.08,0,0,1-3.12-.58c-1-.54-1.83-1.58-2.64-3.62a48.49,48.49,0,0,1-2.3-9.77c-.72-4.66-1.48-10.85-2-19.3-.16-2.69-.32-5.52-.37-8.6a88.66,88.66,0,0,1,.42-9.75c.65-6.59,1.91-13.12,3.18-19.55s2.53-12.8,3.44-19.07,1.52-12.45,1.78-18.33.11-11.47-.08-16.7-.29-10-.12-14.05C498.67,244.41,499.89,239.57,500.95,239.58Z"/><path class="cls-1" d="M462.94,125.85c.64.92-4.37,5.59-12.81,12.71-4.2,3.58-9.25,7.78-14.67,12.61a210.41,210.41,0,0,0-16.76,16.45,122.15,122.15,0,0,0-8,9.8c-2.61,3.44-5,7.11-7.39,10.83a202.67,202.67,0,0,0-12.37,23.83c-3.69,8.23-7.09,16.63-10.56,24.63-1.72,4-3.48,7.9-5.22,11.64l-4.86,10.46c-4.91,10.78-8.21,18.82-10.48,24.76s-3.58,9.76-4.66,12.25-1.87,3.65-2.87,4.28a5.58,5.58,0,0,1-3.13.62,4,4,0,0,1-3.09-.89,5.69,5.69,0,0,1-1.29-2.12,16.81,16.81,0,0,1-.76-4c-.21-3.39.19-8.36,1.94-15.18a162.12,162.12,0,0,1,9.79-26.34c1.56-3.43,3.3-7,5-10.66s3.5-7.32,5.29-11.21c3.6-7.76,7.31-16.1,11.55-24.56a191.11,191.11,0,0,1,14.64-24.84c2.83-3.9,5.72-7.7,8.81-11.22a121.17,121.17,0,0,1,9.53-10,173.88,173.88,0,0,1,19.3-15.55c6.14-4.32,11.81-7.84,16.62-10.67C456.15,127.87,462.31,125,462.94,125.85Z"/><path class="cls-1" d="M423.46,362.63c.33-.45,1.3-.4,2.8-.05s3.57,1,6.17,1.84c1.3.45,2.74,1,4.33,1.64a27.77,27.77,0,0,1,5.15,2.83,58,58,0,0,1,9.57,8.58c3,3.28,5.82,6.8,8.66,9.94,1.42,1.57,2.85,3.09,4.33,4.45l.64.61.71.71c.47.47.92,1,1.37,1.44.89,1,1.72,2,2.53,3a49,49,0,0,1,4.37,6.53c.33.58.64,1.19.94,1.81l.76,1.63,1.34,2.89c1.79,3.88,3.44,7.66,4.81,11.16a71,71,0,0,1,4.13,13.8,26.71,26.71,0,0,1,.41,4.67,16.94,16.94,0,0,1-.1,1.81,12.59,12.59,0,0,1-.3,1.53,7.06,7.06,0,0,1-.41,1.18,5.14,5.14,0,0,1-.56.93,3.25,3.25,0,0,1-1.3,1,7.84,7.84,0,0,1-3.1.36,10.32,10.32,0,0,1-3.14-.35,5.54,5.54,0,0,1-1.4-.66,5.93,5.93,0,0,1-1.34-1.23c-1.77-2.13-3.73-6.89-7.79-17.25l-4.31-10.8-1.2-3-.53-1.37c-.15-.38-.32-.76-.5-1.16a39.3,39.3,0,0,0-2.73-4.88c-.53-.81-1.08-1.62-1.66-2.39-.29-.39-.58-.77-.88-1.14l-.45-.55-.53-.64a69.52,69.52,0,0,1-4.55-5.93c-2.75-4-5-7.81-7.16-11.19a69.14,69.14,0,0,0-6.49-8.76,51.67,51.67,0,0,0-6.63-5.78,32.9,32.9,0,0,1-4.91-4.58C423.5,364,423.14,363.07,423.46,362.63Z"/><path class="cls-1" d="M511.62,180.75c0,.52-4.3,1.33-11.47,1.48-3.58.07-7.84,0-12.55-.18s-9.85-.28-15.18,0A68.69,68.69,0,0,0,456.25,185c-2.69.8-5.48,1.84-8.19,2.87s-5.44,2.15-8.1,3.31c-10.67,4.62-20.69,9.93-29,14.38a151.46,151.46,0,0,1-16.29,7.88,38.14,38.14,0,0,1-9.09,2.6c-2,.23-3.09,0-3.64-.38a1.9,1.9,0,0,1-.71-1.44,2,2,0,0,1,.21-1.64,3.55,3.55,0,0,1,.93-.9,14.89,14.89,0,0,1,1.87-1.16c3.27-1.76,9.81-4.84,22.93-12a289.32,289.32,0,0,1,30-14.14c2.8-1.11,5.65-2.15,8.54-3.12s5.75-1.88,8.76-2.63a70.2,70.2,0,0,1,17.81-2.19,136.93,136.93,0,0,1,15.68,1.15l12.37,1.53C507.28,179.92,511.6,180.17,511.62,180.75Z"/><path class="cls-1" d="M599.06,577.87c.34.2-.26,2.17-2,5.12a31.81,31.81,0,0,1-9.2,9.91c-4.43,3.16-9.93,5.34-14.21,8-2.1,1.34-4.18,3-6.38,4.56a31.5,31.5,0,0,1-6.9,3.81,32.84,32.84,0,0,1-5,1.32c-1.38.28-2.57.46-3.59.58a16.39,16.39,0,0,1-4.41.07,2.46,2.46,0,0,1-1.71-.82,2,2,0,0,1-.21-1.16,2.36,2.36,0,0,1,.22-1.18,2.68,2.68,0,0,1,1.36-1.08,26.9,26.9,0,0,1,3.88-1.31l3.27-.88c1.25-.34,2.71-.68,4-1.18a29.66,29.66,0,0,0,5.72-3.06c2.05-1.33,4.24-3,6.86-4.45,1.36-.76,2.65-1.33,3.94-1.9s2.58-1.11,3.84-1.63a66.6,66.6,0,0,0,7-3.25,38,38,0,0,0,9.59-7.71C597.4,579.23,598.69,577.64,599.06,577.87Z"/><path class="cls-1" d="M548.88,245.16c.25.5-1.51,1.92-4.39,4a88.75,88.75,0,0,0-10.61,8.72,59.37,59.37,0,0,0-5.44,6.24c-.41.57-.87,1.16-1.26,1.71s-.76,1.13-1.12,1.71c-.72,1.17-1.4,2.41-2,3.69-1.3,2.55-2.5,5.21-3.79,7.8l-1,1.92-.51.94-.26.47c-.08.15-.17.31-.31.52a25.14,25.14,0,0,1-2.8,3.56c-2.78,3-4.58,4.83-5.82,6.28s-1.94,2.31-2.51,2.89a2.91,2.91,0,0,1-3.17.81,2.65,2.65,0,0,1-1.46-.59,2.87,2.87,0,0,1-.62-2.35,11.88,11.88,0,0,1,1.84-5.16,29.2,29.2,0,0,1,2.43-3.43c1-1.21,2.16-2.49,3.39-3.84a22.57,22.57,0,0,0,1.94-2.35,2.89,2.89,0,0,0,.21-.33l.24-.4.48-.83,1-1.74c1.31-2.39,2.68-5.05,4.3-7.76.81-1.35,1.68-2.72,2.66-4,.49-.66,1-1.32,1.54-2s1.06-1.2,1.59-1.79a53.57,53.57,0,0,1,6.8-6.23A52.53,52.53,0,0,1,543,246.46C546.43,245.15,548.64,244.68,548.88,245.16Z"/><path class="cls-1" d="M665.65,449.6c0,.56-1.69,1.08-4.71,1.68s-7.34,1.36-12.81,2.31c-2.74.46-5.8.94-9.13,1.31s-7,.63-10.64.79c-7.43.37-15.58.54-24.07.9a192,192,0,0,0-25.85,2.54,79.77,79.77,0,0,0-12.42,3.2c-4.1,1.43-8.29,3.15-12.37,4.95s-8.12,3.71-12,5.67-7.64,3.91-11.15,6a179.4,179.4,0,0,0-19,13.09c-4.49,3.49-8.24,6.85-11.62,9.85l-8.49,7.54L485.61,515c-1.61,1.55-2.91,2.75-4,3.63-2.18,1.79-3.43,2.31-4.5,2.3a8.29,8.29,0,0,1-3.06-.8c-1-.42-2-.79-2.4-2.22s-.17-3.38,1.14-6.39a40.85,40.85,0,0,1,2.89-5.35c.65-1,1.4-2.15,2.25-3.36s1.81-2.48,3.06-4c.28-.35.72-.81,1.09-1.21l.91-1,2-2c1.36-1.41,2.86-2.93,4.51-4.54a143.68,143.68,0,0,1,12.14-10.69,165.4,165.4,0,0,1,21.07-14.08c4-2.23,8.21-4.3,12.38-6.19s8.54-3.77,13-5.5,9-3.35,13.74-4.74A88.62,88.62,0,0,1,576.47,446a176.71,176.71,0,0,1,27.8-.74c8.72.36,16.85,1,24.16,1.47,3.69.26,7,.45,10.24.53s6.18.09,8.95.1a99.93,99.93,0,0,1,13.23.68C664,448.49,665.65,449.06,665.65,449.6Z"/><path class="cls-1" d="M647.57,485.25c-.13.53-2.27.58-5.67.08a58.48,58.48,0,0,1-6-1.21,45.82,45.82,0,0,1-7.31-2.49c-.65-.28-1.32-.64-2-1a20.48,20.48,0,0,1-2-1.31,29.8,29.8,0,0,1-3.49-3c-2.15-2.15-4-4.42-5.77-6.37a34.06,34.06,0,0,0-2.66-2.65,22.37,22.37,0,0,0-2.73-2.05c-2-1.29-4.16-2.5-6.08-3.59-6.32-3.54-9.37-5.64-10.59-7.17s-.67-2.37-.12-3.32a2.55,2.55,0,0,1,3-1.53c1.93.27,5.3,1.52,11.62,5.06,2,1.14,4.19,2.43,6.53,4.06a27.82,27.82,0,0,1,3.57,3,37,37,0,0,1,3,3.44c1.85,2.34,3.42,4.67,5.06,6.67a26.77,26.77,0,0,0,2.51,2.73,16,16,0,0,0,1.28,1.09c.48.33.93.68,1.45,1a59.36,59.36,0,0,0,6.17,3.28c2,.94,3.81,1.74,5.33,2.44C645.83,483.74,647.7,484.71,647.57,485.25Z"/><path class="cls-1" d="M418.72,286.31c.39.41-1.16,2.56-3.67,6s-5.86,8.27-9.7,13.68-7.64,11.77-12.89,17.36c-.66.7-1.32,1.36-2,2l-1.15,1-1.13.9c-1.5,1.17-3,2.18-4.44,3.13-2.91,1.89-5.72,3.51-8.3,4.9-8.41,4.51-13,5.94-15.4,6.2s-2.73-.76-3.13-1.79-.66-2,1.14-3.52,5.75-3.73,13.58-7.94c2.47-1.34,5.18-2.84,7.94-4.5,1.36-.84,2.76-1.71,4-2.63l1-.69.87-.7c.6-.51,1.23-1.07,1.82-1.64,4.86-4.58,9.19-10.52,13.66-15.65,2.25-2.55,4.34-4.85,6.35-7s3.87-3.91,5.52-5.35C416.06,287.32,418.35,285.92,418.72,286.31Z"/><path class="cls-1" d="M526,551.36c.37-.19,1,.48,1.43,1.65a20.9,20.9,0,0,1,.95,4.94,60.44,60.44,0,0,1,.2,7.32c0,.35,0,.72-.06,1.11,0,.17,0,.44-.08.69s-.08.46-.12.69c-.16.83-.32,1.53-.48,2.28-.34,1.47-.71,3-1.1,4.48-.78,3-1.69,6.24-2.57,9.39-.77,2.91-1.45,6.19-2.09,9.38l-1.82,9.38-.39,2.17-.09.5-.2.93c-.14.55-.29,1.08-.45,1.55a28.2,28.2,0,0,1-2.16,4.79,37.15,37.15,0,0,1-3.66,5.4,34.37,34.37,0,0,1-3.18,3.46,14.6,14.6,0,0,1-4.57,3.15c-2.32.83-3.32-.3-4.49-1.46s-2.18-2.29-1.5-4.54a18.23,18.23,0,0,1,2.26-4.45l2.11-3.25c.8-1.22,1.7-2.6,2.54-4.13a20.83,20.83,0,0,0,1.37-2.86c.09-.23.14-.4.2-.57a1.3,1.3,0,0,1,0-.17l.13-.61.54-2.36c.75-3.11,1.62-6.33,2.59-9.61s2-6.57,3.43-10c1.34-3.15,2.68-6.1,4-8.94l1.86-4.08.81-1.81.14-.32a2.4,2.4,0,0,0,.12-.33c.09-.28.18-.58.26-.89l1.77-6.69c.51-1.91.94-3.44,1.29-4.48S525.67,551.54,526,551.36Z"/><path class="cls-1" d="M451.69,206.61c0,.41-1.2.81-3.13.93a43,43,0,0,1-7.56-.3c-.39-.05-.74-.09-1.2-.19s-.91-.23-1.33-.35c-.83-.26-1.58-.56-2.35-.87-1.51-.62-3-1.31-4.38-2l-2.06-1-1-.46-.45-.2-.28-.1c-1.09-.35-2.47-.69-3.61-1-3.83-.94-5.67-1.55-6.45-2.2a1.66,1.66,0,0,1-.62-1,4.92,4.92,0,0,1-.07-1.17,2.68,2.68,0,0,1,.18-1.16,1.83,1.83,0,0,1,1.13-.86c1.19-.38,3.33-.39,7.28.58a36.26,36.26,0,0,1,4.23,1.29c.22.09.53.23.73.33l.54.29,1,.58,2,1.2,3.93,2.38c.64.37,1.27.73,1.86,1,.29.14.57.28.8.37s.62.22.94.33c2.67.85,5.18,1.55,6.93,2.12S451.68,206.19,451.69,206.61Z"/><path class="cls-1" d="M211.26,156.38c-.14-.24.72-1,2.45-2.21a40,40,0,0,1,8.06-3.79,66.38,66.38,0,0,1,13-3c2.49-.34,5.13-.58,7.86-.73s5.62-.18,8.37-.25c5.52-.21,11.48-1,17.68-1.48,3.1-.26,6.26-.46,9.48-.51a61.45,61.45,0,0,1,9.79.54,39.65,39.65,0,0,1,5,1,25.23,25.23,0,0,1,2.49.82c.83.3,1.58.69,2.37,1a45,45,0,0,1,8.08,5.23,82.07,82.07,0,0,1,12,11.93c1.33,1.62,2.53,3.18,3.61,4.71,1.21,1.74,2,3.16,2.75,4.52l3.81,6.86c2.12,3.81,3.52,6.2,4.38,7.7.22.36.4.67.54,1s.26.49.35.72a3.06,3.06,0,0,1,.27,1,3,3,0,0,1-.4,1.58c-.24.5-.45,1-1.28,1a3,3,0,0,1-.76-.06,5.69,5.69,0,0,1-.89-.31,6,6,0,0,1-1.09-.6,11.13,11.13,0,0,1-1.24-.92,37.21,37.21,0,0,1-6.39-7.65c-1.28-1.88-2.66-4.11-4.21-6.63-.78-1.25-1.58-2.61-2.42-3.75-.94-1.3-2-2.68-3.21-4.12a82,82,0,0,0-10.72-10.92,39,39,0,0,0-6.59-4.5c-.58-.26-1.16-.6-1.75-.82a18,18,0,0,0-1.8-.65,33.21,33.21,0,0,0-4-1c-5.55-1-11.68-.88-17.71-.69s-12.13.65-18.07.51c-3-.11-5.64-.28-8.29-.32s-5.15,0-7.54.1a79.64,79.64,0,0,0-12.54,1.55,77.91,77.91,0,0,0-8.2,2.25C212.52,156.33,211.4,156.62,211.26,156.38Z"/><path class="cls-1" d="M130.14,199.27c1.06-.32,3,2.07,5.52,6.63,1.3,2.27,2.85,5.06,4.51,8.32s3.63,6.94,5.88,10.94a269.7,269.7,0,0,0,16.7,27.14A174.59,174.59,0,0,0,188.1,281a186.13,186.13,0,0,0,16.28,13c5.87,4.11,12.14,8.08,18.64,12,13,7.9,27,15.72,40.57,24.9,3.4,2.32,6.76,4.69,10.08,7.21s6.5,5.1,9.55,7.66c6.1,5.13,11.71,10.2,17.07,14.91s10.45,9.05,15.4,12.78c2.47,1.9,4.91,3.6,7.28,5.19s4.94,3.13,7.45,4.62c8.27,4.85,16.24,9.15,23.22,13.51,3.5,2.18,6.78,4.37,9.79,6.58L365.6,405l1.74,1.35L370.8,409c9,7,14.69,12.32,18,16.46s4.31,7.08,4.1,9.36-1.61,3.84-3,5.57-2.77,3.31-5,4-5.17.61-10.05-1.08-11.64-4.88-21.46-10.49c-1.23-.71-2.52-1.46-3.89-2.29-1.54-1-2.61-1.57-3.87-2.34-2.54-1.48-5.36-3.07-8.52-4.78-6.3-3.46-14-7.33-23-12.64-2.88-1.71-5.85-3.54-8.9-5.58s-6.11-4.29-9-6.61c-5.91-4.62-11.48-9.64-17-14.72s-10.78-10.24-16.14-15.14c-2.68-2.44-5.37-4.85-8.1-7.1s-5.61-4.53-8.55-6.77c-11.84-8.94-25.05-17.48-38.06-26.75-6.5-4.64-13-9.47-19.12-14.63A188.22,188.22,0,0,1,172.07,297a168.75,168.75,0,0,1-24.61-35.4A185.68,185.68,0,0,1,134.55,230c-1.46-4.58-2.43-8.8-3.32-12.47s-1.37-6.91-1.69-9.56C128.92,202.63,129.08,199.59,130.14,199.27Z"/><path class="cls-1" d="M242.59,230.92c.16-.13.47-.11.87,0s.94.33,1.62.61l5.92,2.34,9,3.46c1.71.66,3.52,1.37,5.41,2.14,1,.39,1.91.79,2.92,1.23.49.21,1,.45,1.54.7s1.09.55,1.68.87L283.13,249c3.92,2.23,8,4.49,11.78,6.25l1.4.61c.43.16.9.36,1.3.49.66.23,1.7.46,2.64.69s1.92.35,2.86.54,1.91.25,2.87.32a80.2,80.2,0,0,0,11.12,0c5.75-.35,10.31-.7,13.76-.64a25.79,25.79,0,0,1,7.32.87c3.07,1,2.94,2.54,2.95,4.2s-.12,3.15-3,4.29a33.89,33.89,0,0,1-6.76,1.69,124.44,124.44,0,0,1-13.62,1.57,73.83,73.83,0,0,1-13-.31c-1.19-.14-2.4-.36-3.61-.56s-2.45-.51-3.67-.88a37.8,37.8,0,0,1-3.86-1.27c-.67-.27-1.24-.56-1.87-.84l-1.72-.88a127.57,127.57,0,0,1-12.21-7.76c-3.81-2.68-7.53-5.49-10.85-8-.33-.24-.64-.48-1.08-.75s-.8-.52-1.24-.78L262,246.33l-5-3c-3.18-1.91-6-3.72-8.31-5.39a29.15,29.15,0,0,1-5.13-4.51,5.74,5.74,0,0,1-1-1.69C242.42,231.33,242.43,231.05,242.59,230.92Z"/><path class="cls-1" d="M70.4,410.24c-.37-.45.94-2,2.69-5,.89-1.51,1.8-3.33,2.9-5.7A54.11,54.11,0,0,1,88.29,383.2a65,65,0,0,1,10.58-7.7,131.09,131.09,0,0,1,12.6-6.44c4.29-2,8.77-4.07,13.48-6.14,9.41-4.13,19.8-8.28,31.33-10.45a155.61,155.61,0,0,1,17.08-2.09c5.73-.35,11.47-.36,17.15-.14s11.27.8,16.74,1.51,10.79,1.72,15.94,2.8,10.11,2.37,14.84,3.74c2.37.67,4.68,1.4,6.92,2.09l6.48,2.12c6.82,2.28,12.63,4.34,17.68,6.08s9.29,3.17,13,4.4c7.41,2.47,12.24,4.22,15.29,5.59s4.34,2.37,4.89,3.37a6,6,0,0,1,.55,3.15,3.18,3.18,0,0,1-1.26,3.05c-1.17.85-3.39,1.44-7.18,1.37a89.44,89.44,0,0,1-17-2.53c-3.91-.88-8.48-2.08-13.63-3.65s-10.94-3.49-17.43-5.66l-6.3-2.08c-2.13-.67-4.28-1.37-6.51-2-4.43-1.34-9.06-2.56-13.83-3.73s-9.71-2.14-14.75-3-10.18-1.49-15.37-1.91-10.43-.59-15.66-.52a153.75,153.75,0,0,0-15.56,1.14c-10,1.32-19.83,4.49-29.23,7.86l-13.82,5.06c-4.42,1.59-8.51,3.17-12.25,4.92a63.4,63.4,0,0,0-10,5.73,55.05,55.05,0,0,0-7.58,6.53A68.34,68.34,0,0,0,80.06,402a37.3,37.3,0,0,1-4.46,5.25C72.76,409.92,70.71,410.64,70.4,410.24Z"/><path class="cls-1" d="M96.22,267.9c.26-.51,2.86.3,7,1.51,2.1.6,4.6,1.31,7.4,2,1.4.35,2.88.7,4.42,1s3.22.72,4.7.94c3.16.45,6.7.64,10.33.79s7.38.26,11.13.48c1.88.11,3.76.26,5.68.51s3.76.62,5.5,1c3.46.75,6.65,1.58,9.52,2.35,9.33,2.55,13.69,4.08,15.75,5.24s1.82,2.11,1.63,3.21-.43,2.08-3,2.28-7.44-.55-16.42-3c-2.85-.76-6-1.63-9.21-2.44-1.62-.4-3.27-.8-4.87-1.07s-3.39-.51-5.18-.72c-3.59-.41-7.32-.76-11-1.21A88.27,88.27,0,0,1,118.65,279c-1.87-.5-3.38-1-5-1.59s-3-1.11-4.41-1.69a75.36,75.36,0,0,1-7.19-3.38C98.13,270.14,96,268.37,96.22,267.9Z"/><path class="cls-1" d="M66.28,561c0-.39.68-.91,2.12-1.27a29.93,29.93,0,0,1,6.27-.71c2.7-.09,6,0,9.69.1,1.85,0,3.84.11,5.77.06.5,0,.91-.05,1.4-.08l1.57-.16c1.06-.1,2.14-.19,3.24-.38a76.75,76.75,0,0,0,14.05-3.34c5-1.69,10.22-4,16-6.49,2.9-1.25,5.94-2.55,9.12-3.81,1.59-.63,3.22-1.25,4.88-1.85l4.87-1.74c6.49-2.31,13.28-4.71,20.33-7.08s14.29-4.74,22.17-6.81c1-.25,2-.5,3.06-.75q1.84-.33,3.71-.63c2.28-.24,4.58-.46,6.68-.5,4.33-.19,8.42-.06,12.55.07,8.18.35,16.24,1,24.22,1.74l11.84,1.07c1.92.15,3.89.34,5.75.46s3.73.24,5.39.28h2.49l3,0,5.93-.07,11.75,0c7.78,0,15.44.12,23,.35s14.84.57,22.25,1.3c.93.09,1.9.22,2.85.33l1.42.18c.47.05,1,.16,1.52.24l1.54.26c.51.09,1,.16,1.68.34l1.91.49.95.26.72.26c1.9.7,3.83,1.35,5.56,2.18.88.4,1.77.78,2.63,1.19l2.49,1.29a95.75,95.75,0,0,1,13.82,9,119.93,119.93,0,0,1,10.49,9.21,118.71,118.71,0,0,1,8.13,8.85c.6.72,1.19,1.46,1.78,2.21l1.61,2.16c.53.69,1,1.43,1.5,2.14s1,1.39,1.39,2.11a64,64,0,0,1,4.42,8.2,51.14,51.14,0,0,1,2.65,7.5,38.76,38.76,0,0,1,1.37,11.46,22.13,22.13,0,0,1-1.15,6.61,7.35,7.35,0,0,1-1.94,3.14c-1.42,1.25-3,1.14-4.66,1.15a6.43,6.43,0,0,1-4.69-1.38,10.35,10.35,0,0,1-2.14-2.86c-.73-1.29-1.44-3-2.34-5s-1.94-4.42-3.48-7.2a65,65,0,0,0-6.71-9.74c-.79-.94-1.6-1.92-2.52-2.93-.45-.51-.9-1-1.36-1.51l-1.49-1.56c-2.09-2.14-4.45-4.43-7-6.77s-5.47-4.74-8.61-7.06a82.13,82.13,0,0,0-10.24-6.55l-1.76-.92-1.79-.8c-1.2-.59-2.4-1-3.61-1.44a42.41,42.41,0,0,0-7.43-1.31c-6.38-.7-13.43-1.16-20.65-1.54s-14.74-.67-22.37-.92L260,551.25c-2.29-.15-4.4-.35-6.45-.59s-4.07-.49-6.09-.74l-11.88-1.61c-7.84-1.07-15.61-2.11-23.17-2.85-3.74-.33-7.51-.65-11-.7-1.8-.08-3.38,0-5,.05q-1,.12-2,.2l-2.59.46c-7.11,1.39-14.41,3.24-21.46,5l-20.65,5.4-4.92,1.29c-1.56.4-3.11.84-4.65,1.29-3.08.89-6.09,1.84-9.1,2.8a181.13,181.13,0,0,1-17.78,5,76.1,76.1,0,0,1-16.48,1.61c-1.26,0-2.48-.07-3.67-.15l-1.76-.12c-.61-.06-1.27-.12-1.83-.21-2.31-.35-4.29-.79-6.15-1.22-3.7-.87-6.79-1.69-9.31-2.37s-4.45-1.21-5.77-1.64S66.32,561.39,66.28,561Z"/><path class="cls-1" d="M214.35,664.21c.43-.38,1.69.14,4.08,1l10.14,3.93c4.31,1.67,9.48,3.65,15.25,5.82l4.43,1.65c1.52.56,3,1.11,4.52,1.59,3,1,6.29,1.82,9.79,2.69s7.23,1.8,11.09,3.06c1,.31,1.94.66,2.91,1l2.64.94c1.76.62,3.53,1.22,5.31,1.79,3.56,1.14,7.16,2.17,10.86,3.12s7.64,2,10.89,2.57a148.87,148.87,0,0,0,21.37,1.9c3.52.1,7,.14,10.3.13l5,0c1.76,0,3.38,0,5,.07,10.33.27,17.87.84,23.53,1.43A62.33,62.33,0,0,1,383.16,699c4.81,1.55,4.62,3.5,4.64,5.73s-.18,4.24-5.4,5.57a60.13,60.13,0,0,1-12.06,1.32c-5.62.21-13.1.11-22.82-.15-1.53,0-3.11-.07-4.63-.08l-5.06,0c-3.5-.05-7.13-.17-10.88-.39a142,142,0,0,1-23.73-3.13q-1.55-.35-3.14-.81c-1.1-.3-2-.58-2.93-.87q-2.84-.87-5.72-1.81c-3.83-1.24-7.69-2.63-11.44-4.15-1.87-.76-3.72-1.54-5.53-2.35l-2.69-1.22c-.8-.36-1.59-.73-2.41-1.07-3.24-1.38-6.65-2.58-10.09-3.82s-6.91-2.53-10.21-4c-1.67-.77-3.22-1.55-4.67-2.31l-4.28-2.27c-5.52-3-10.39-5.84-14.37-8.41a63.93,63.93,0,0,1-9.05-6.77C214.69,666.08,213.94,664.56,214.35,664.21Z"/><path class="cls-1" d="M222.14,698.87c-.4-.38.17-1.73,1.45-3.61a36.62,36.62,0,0,1,2.45-3.19,23.82,23.82,0,0,1,1.72-1.83c.65-.61,1.33-1.19,2.05-1.76a39.4,39.4,0,0,1,4.76-3.22c.86-.5,1.76-1,2.69-1.4.47-.21.95-.42,1.44-.62a15.14,15.14,0,0,1,1.63-.56,18.35,18.35,0,0,1,6.65-.4c1.88.18,3.42.43,4.66.53.51,0,.94.07,1.34.09l1.44.06c.87,0,1.59.1,2.19.17a7.86,7.86,0,0,1,2.54.59c1.13.54,1.34,1.49,1.57,2.58s.45,2.08-.77,3a7.39,7.39,0,0,1-3,1.18,20,20,0,0,1-2.5.3c-.47,0-.95.05-1.48.06a19.61,19.61,0,0,1-2-.08c-3.4-.32-6.71-1.29-8.92-.93a8.48,8.48,0,0,0-1,.22c-.38.1-.77.21-1.17.33-.79.25-1.59.53-2.38.83-1.59.6-3.14,1.3-4.58,2-.72.35-1.41.72-2,1.07s-1.23.74-1.82,1.12c-1.2.78-2.3,1.51-3.25,2.08C223.84,698.67,222.54,699.26,222.14,698.87Z"/><path class="cls-1" d="M287.71,633.24c.57,0,1.07,2.84,1.93,7.4A107.82,107.82,0,0,0,294.2,658a71.76,71.76,0,0,0,4.51,9.91,69.43,69.43,0,0,0,6.19,9.3,84.11,84.11,0,0,0,7.29,8.06c1.26,1.23,2.48,2.34,3.76,3.48s2.42,2.14,3.52,3a26.09,26.09,0,0,0,4.92,3.05c1.59.76,3.14,1.43,4.48,2.1a24.74,24.74,0,0,1,3.27,1.91c.72.51,1.14.83,1.49,1.11a4.76,4.76,0,0,1,1.35,1.42,3.67,3.67,0,0,1,.32,1.55,2.07,2.07,0,0,1-.33,1.57c-.38.47-1.3,1-3.07.86a12,12,0,0,1-2.91-.65l-3.21-1.06c-1.28-.43-2.84-.92-4.78-1.73a28.21,28.21,0,0,1-6.43-3.79c-1.39-1.07-2.71-2.25-4-3.43s-2.65-2.48-4-3.84a78.75,78.75,0,0,1-7.64-9.18,66.46,66.46,0,0,1-10.19-21.93,72,72,0,0,1-2.27-18.82C286.62,636.12,287.18,633.25,287.71,633.24Z"/><path class="cls-1" d="M61.27,353.07c.22-.53,2.43-.13,6,.23s8.61.7,14.48,1.57c1.47.23,3,.52,4.54.9.76.19,1.6.43,2.33.64l2.16.63c2.9.83,5.84,1.61,8.74,2.28a120.79,120.79,0,0,0,16.18,2.55c7.75.66,11.69,1,13.6,1.82a2.42,2.42,0,0,1,1.84,2.85c0,1.1-.08,2.1-2.12,2.8s-6.05,1.18-14.08.49a88.9,88.9,0,0,1-17.33-3.39c-3-.92-6.06-2-9-3.13l-2.17-.87c-.71-.28-1.3-.53-2-.77-1.31-.48-2.65-.9-4-1.29-5.34-1.51-10.46-2.67-14-4.07S61.06,353.55,61.27,353.07Z"/><path class="cls-1" d="M225.79,422.63c.32-.44,2,0,5,1s7.32,2.68,12.61,4.87l4.15,1.76c1.47.64,2.9,1.25,4.62,2.11s3.26,1.9,4.83,2.92,3.11,2.09,4.68,3.2c3.15,2.21,6.4,4.6,9.73,7,1.68,1.21,3.26,2.29,5,3.4s3.56,2.21,5.44,3.33c3.76,2.24,7.74,4.53,11.79,7.1,2,1.29,4.08,2.65,6.13,4.14,1,.73,2.08,1.56,3,2.33l2.76,2.18c3.72,2.93,7.55,5.94,11.35,9.18.95.81,1.9,1.64,2.84,2.5l1.41,1.3c.45.41,1,.93,1.49,1.46a57.64,57.64,0,0,1,5.26,6.31c3.07,4.22,5.56,8.35,8,12.15,1.22,1.9,2.42,3.69,3.61,5.3.3.42.6.79.89,1.17l1,1.24,2.11,2.63,15.5,19.47,10.21,12.56,4.13,5.06,1.75,2.16,1.6,1.89,5.53,6.25a54.57,54.57,0,0,1,3.66,4.59c3.6,5.23,2,6.59.5,8.17s-3,2.87-8.51-.15a51.81,51.81,0,0,1-5.06-3.23,73.11,73.11,0,0,1-7.14-5.81c-2.85-2.67-5.48-5.54-8.67-9.06s-6.65-7.62-10.48-12.38c-4.86-6-10-12.78-15.39-19.85l-2-2.67-1.08-1.45c-.39-.53-.78-1.06-1.13-1.58-1.45-2.1-2.75-4.19-4-6.24-2.45-4.1-4.7-8.15-7.1-11.74a45.41,45.41,0,0,0-3.68-4.88c-.56-.66-1.43-1.53-2.21-2.31s-1.62-1.59-2.45-2.38c-3.35-3.17-6.9-6.3-10.48-9.48l-2.68-2.41c-.85-.76-1.6-1.43-2.45-2.14-1.67-1.39-3.43-2.74-5.23-4.07-3.61-2.66-7.35-5.21-11-7.83-1.84-1.31-3.66-2.63-5.44-4s-3.57-2.84-5.14-4.22l-9-8c-1.41-1.25-2.78-2.45-4.1-3.58s-2.62-2.2-3.76-3-2.65-1.71-3.94-2.52l-3.8-2.37c-4.84-3-8.71-5.59-11.27-7.56S225.46,423.09,225.79,422.63Z"/><path class="cls-1" d="M174.07,468.54c0-.57,3.29-1.08,8.62-1.83s12.71-1.8,20.92-3.29c4.11-.74,8.42-1.58,12.81-2.49l6.61-1.41c1.13-.24,2.17-.49,3.21-.74s2.1-.55,3.15-.86c8.43-2.47,16.75-5.54,24.29-7l2.26-.4c.76-.1,1.45-.2,2.19-.28a24.64,24.64,0,0,1,4.31,0,46.91,46.91,0,0,1,6.11,1,40.09,40.09,0,0,1,6.6,2,6.17,6.17,0,0,1,1.35.74,2.53,2.53,0,0,1,.31.33l.13.17a1,1,0,0,0,0,.17c.11.48.39,1,.56,1.48s.43,1-.26,1.62a5.24,5.24,0,0,1-3.18,1,42.87,42.87,0,0,1-7-.31c-1.57-.14-3.38-.34-5.33-.4a20.42,20.42,0,0,0-2.84.09l-1.76.26-1.91.35c-3.35.68-7.11,1.66-11.13,2.8s-8.31,2.41-12.83,3.5c-1.13.28-2.28.53-3.44.77s-2.37.44-3.48.61c-2.26.37-4.53.72-6.78,1-4.51.64-9,1.17-13.18,1.56a172,172,0,0,1-21.53.8C177.39,469.62,174.07,469.08,174.07,468.54Z"/><path class="cls-1" d="M146.49,627.77c-.26-.1-.13-1.15.33-3a77.19,77.19,0,0,1,2.43-7.65,153.34,153.34,0,0,1,10.88-24.58,112.43,112.43,0,0,1,9.4-13.93l1.34-1.69.67-.83.57-.74c.77-1,1.54-2.18,2.31-3.33,1.54-2.32,3.08-4.72,4.73-7.1.83-1.19,1.67-2.38,2.6-3.57a28.2,28.2,0,0,1,3.21-3.56,50.12,50.12,0,0,1,7-5.2c2.32-1.46,4.45-2.71,6.37-4,.46-.32,1-.69,1.28-.9s.71-.59,1.08-.93c.75-.7,1.51-1.49,2.28-2.29,1.25-1.31,2.49-2.62,3.82-3.84a23.26,23.26,0,0,1,2.17-1.78,14.8,14.8,0,0,1,1.26-.82c.21-.13.54-.28.8-.4l.42-.19.32-.12a32.38,32.38,0,0,1,4.25-1.17c1.25-.27,2.38-.47,3.42-.64a42.67,42.67,0,0,1,8.84-.68c1.89.12,2.86.48,3.38.95a1.82,1.82,0,0,1,.43,1.54,2.31,2.31,0,0,1-.46,1.57,6.62,6.62,0,0,1-2.94,1.59c-1.7.6-4.31,1.31-8.11,2.32-.95.26-2,.53-3,.84a28.91,28.91,0,0,0-3.1,1,6.78,6.78,0,0,0-.93.64c-.43.34-.9.75-1.4,1.23-1,1-2.1,2.13-3.35,3.44-.8.83-1.64,1.71-2.63,2.63-.5.46-1,.93-1.66,1.4s-1.17.82-1.73,1.2c-2.18,1.44-4.49,2.75-6.65,4a44.57,44.57,0,0,0-6.07,4.28,21.71,21.71,0,0,0-2.4,2.53c-.82,1-1.64,2.05-2.46,3.14-1.63,2.19-3.25,4.5-4.95,6.84-.86,1.17-1.72,2.34-2.7,3.53l-.77.91-.7.79-1.37,1.55a120.89,120.89,0,0,0-9.7,12.67,244.32,244.32,0,0,0-12.87,22.91c-1.56,3-2.88,5.35-3.78,7S146.75,627.87,146.49,627.77Z"/><path class="cls-1" d="M84.44,492.3c.16-.22,1,.16,1.88,1.37.43.57.85,1.33,1.36,2a24.21,24.21,0,0,1,1.84,2.88c1.22,2.14,2.44,4.87,4,7.35.36.56.85,1.19,1.34,1.84s1,1.28,1.55,1.9a50.17,50.17,0,0,0,3.58,3.76c2.59,2.49,5.63,5,8.7,7.75,1.52,1.38,3.08,2.92,4.5,4.38s2.75,2.71,4.2,4a57.81,57.81,0,0,0,8.92,6.41,40,40,0,0,0,4.44,2.19c.73.28,1.44.56,2.14.77l.52.17.44.11c.26.08.66.14,1,.21,2.33.43,4.62.72,6.55,1l5.07.71a36.87,36.87,0,0,1,6,1.26c2.45.84,2.34,1.8,2.33,2.91s-.12,2.13-2.87,2.72a29.79,29.79,0,0,1-6.34.43c-1.48,0-3.2-.09-5.21-.26a69.12,69.12,0,0,1-7-.9c-.47-.1-.88-.16-1.42-.32l-.77-.21-.68-.23c-.93-.29-1.83-.66-2.75-1a43.79,43.79,0,0,1-5.35-2.79,59.1,59.1,0,0,1-9.9-7.71c-1.54-1.47-3-3-4.42-4.65s-2.57-3-3.94-4.39c-2.7-2.84-5.62-5.62-8.18-8.62a48.52,48.52,0,0,1-3.52-4.57c-.53-.76-1-1.55-1.47-2.31S90,508.87,89.58,508a40.64,40.64,0,0,1-1.71-4.48l-1.2-3.76c-.37-1.13-.7-2.11-1-2.94a15.84,15.84,0,0,1-.75-2.46C84.58,493.12,84.26,492.52,84.44,492.3Z"/><path class="cls-1" d="M247.14,125.85c.31-.3,1.52.48,3.23,1.92l1.38,1.19.75.66a7.51,7.51,0,0,0,.71.57c1.19.81,2.58,1.89,3.9,3s2.69,2.17,4.1,3.09c.66.43,1.49.93,2.27,1.41s1.53.93,2.28,1.33,1.47.77,2.22,1.1,1.55.66,2.32,1c1.56.62,3,1.15,4.35,1.61,4.5,1.54,6.61,2.44,7.48,3.17a1.58,1.58,0,0,1,.63,1.06,5.43,5.43,0,0,1,.07,1.18,2,2,0,0,1-.24,1.15,2.14,2.14,0,0,1-1.43.74c-1.46.24-3.95-.09-8.46-1.63-1.46-.49-3.07-1.14-4.7-1.87-.82-.37-1.65-.77-2.52-1.22a28.6,28.6,0,0,1-2.59-1.52c-.84-.55-1.64-1.13-2.39-1.71s-1.47-1.12-2.29-1.79a41.67,41.67,0,0,1-4-4c-1.18-1.31-2.18-2.44-3.23-3.55a9.5,9.5,0,0,1-.78-1l-.59-.86c-.37-.55-.7-1.07-1-1.55C247.43,127.38,246.86,126.13,247.14,125.85Z"/><path class="cls-1" d="M314,221.87c.29-.47,2.37.24,4.69,1.27,1.16.49,2.49,1,3.71,1.49,1.06.38,2.37.62,3.5,1,.85.26,1.31.4,1.6.52a3.46,3.46,0,0,1,.93.42c.48.35.47.86.47,1.41a1.69,1.69,0,0,1-.44,1.42,2.15,2.15,0,0,1-1.24.42,6.9,6.9,0,0,1-2.46-.36,22.14,22.14,0,0,1-3.89-1.46,26.89,26.89,0,0,1-3.64-2.42C315.16,223.81,313.75,222.34,314,221.87Z"/><path class="cls-1" d="M409.09,152.38c1-.43,3.58,3.39,4.54,5.68.78,1.86-.06,2.18-1.08,2.6s-1.86.74-2.61-1.06C409,157.31,408.07,152.8,409.09,152.38Z"/><path class="cls-1" d="M81.33,507.63c-.09-1.1,5.12-2.42,8-2.65,2.37-.19,2.4.71,2.49,1.81s.12,2-2.17,2.18C86.78,509.2,81.42,508.73,81.33,507.63Z"/><path class="cls-1" d="M88,573.92c-.8-.76,3.49-6.56,6.21-9.41,2.21-2.32,2.83-1.67,3.62-.9s1.41,1.42-.73,3.66C94.44,570.12,88.85,574.68,88,573.92Z"/><path class="cls-1" d="M144.3,602.55c.08-1.1,7.29-1.45,11.21-1.15,3.2.24,3.08,1.13,3,2.23s-.2,2-3.3,1.75C151.28,605.09,144.21,603.65,144.3,602.55Z"/><path class="cls-1" d="M328.69,302.35c-.32-.27-.28-.9-.1-1.76a26.78,26.78,0,0,1,1-3.22c.23-.63.5-1.3.82-2s.55-1.32.84-2A34.72,34.72,0,0,1,333,290c2-3.15,3.11-2.39,4.52-1.53s2.52,1.62.61,4.63c-.6,1-1.38,2.14-2.24,3.3-.43.58-.88,1.15-1.34,1.71l-1.38,1.5a14.5,14.5,0,0,1-2.7,2.37C329.66,302.48,329,302.62,328.69,302.35Z"/><path class="cls-1" d="M285.7,398.88c-.13-.25.2-.71.76-1.35s1.35-1.47,2.29-2.41c.47-.47,1-1,1.54-1.45s1-1,1.55-1.45c1-.94,2.07-1.82,3-2.51,3-2.2,3.49-1.45,4.16-.57s1.16,1.63-1.72,3.75c-.91.7-2,1.51-3.22,2.31-.59.4-1.2.8-1.81,1.18l-1.77,1a17.32,17.32,0,0,1-3.15,1.46C286.42,399.11,285.83,399.12,285.7,398.88Z"/><path class="cls-1" d="M242.6,305.68c.52,0,1.16.85,2,2.49a19.39,19.39,0,0,1,1.31,3.05c.39,1.15.78,2.43,1.17,3.79a77.14,77.14,0,0,1,2.07,8.73c.52,3,.94,5.89,1.19,8.25.84,7.74-1,7.83-3.15,8.06s-4,.32-4.8-7.22c-.25-2.41-.44-5.22-.55-8.19s-.32-6-.34-8.78c0-1.39,0-2.71,0-3.91s0-2.17.06-3.12C241.65,307,242,305.68,242.6,305.68Z"/><path class="cls-1" d="M158.57,346.9c.21-.18.7,0,1.29.42L162,349c.83.67,1.72,1.46,2.54,2.23s1.52,1.38,2.14,1.94c1,.92,1.41,1.45,1.47,1.93a2.15,2.15,0,0,1-.51,1.36c-.3.46-.57.89-1.12.95s-1.36-.24-2.51-1.27a16.82,16.82,0,0,1-2.27-2.52c-.68-.92-1.34-1.9-1.9-2.81-.29-.48-.52-.84-.77-1.36a8,8,0,0,1-.44-1.2C158.41,347.54,158.37,347.08,158.57,346.9Z"/><path class="cls-1" d="M132.33,380.13c-.23-.11-.35-.65-.41-1.62a16.48,16.48,0,0,1,.21-3.88,25.25,25.25,0,0,1,3.67-8.74c1.2-1.83,1.82-2.37,2.34-2.61a1.71,1.71,0,0,1,1.47.23c.5.23,1,.45,1,1.14s-.41,1.82-1.44,3.4a55.87,55.87,0,0,0-4.33,7.39c-.57,1.28-1,2.47-1.4,3.38S132.61,380.25,132.33,380.13Z"/><path class="cls-1" d="M228,480.22c-.47-.27.21-2.7.82-5.9.31-1.58.75-3.44,1.11-5.07s.65-3.27.85-4.59c.31-2.15.52-3.19.9-3.72s.87-.52,1.42-.52a1.35,1.35,0,0,1,1.41.62c.34.61.57,1.86.22,4.22a28.93,28.93,0,0,1-1.25,5c-.61,1.76-1.29,3.39-2,4.95C230.18,478.31,228.5,480.51,228,480.22Z"/><path class="cls-1" d="M375.9,481.42c.3-.48,1.48-.4,2.91-.17a30.9,30.9,0,0,1,4.11,1c.83.24,1.14.49,1.25.86a6.49,6.49,0,0,1,.15,1.42,1.61,1.61,0,0,1-.36,1.4,2.28,2.28,0,0,1-2.16.16,9.61,9.61,0,0,1-2.17-1,20.8,20.8,0,0,1-2-1.29C376.42,482.9,375.61,481.87,375.9,481.42Z"/><path class="cls-1" d="M246,563c-.56-.15-.25-3.14.79-6.85a32.36,32.36,0,0,1,2.37-5.72c.95-1.84,2-3.53,2.84-4.83,1.32-2.12,1.84-3,2.37-3.46a1.48,1.48,0,0,1,1.52-.15c.53.14,1,.28,1.14,1.1s-.22,2.35-1.64,4.61c-.9,1.44-2,3-3.06,4.58a56.34,56.34,0,0,0-2.92,4.91C247.78,560.43,246.52,563.1,246,563Z"/><path class="cls-1" d="M428.8,477.52c.54.14.44,1.9-.06,4.69s-1.18,6.44-2,10.65l-1.29,6.59-1.19,6.72-1.24,6.6c-.42,2.15-.84,4.09-1.15,5.8l-.2,1.1-.24,1.1c-.16.69-.33,1.31-.49,1.88-.32,1.13-.63,2.06-.91,2.83a11.64,11.64,0,0,1-1.53,3.11c-.94,1.2-1.91,1-3,.9a2.45,2.45,0,0,1-2.53-2,11.19,11.19,0,0,1-.07-3.79c.09-.85.25-1.82.45-2.9l.66-3.62c.36-1.94.86-4,1.37-6l.38-1.55c.12-.51.25-1,.41-1.61l.92-3.38c.64-2.27,1.28-4.59,2-6.82s1.49-4.34,2.24-6.38a75.27,75.27,0,0,1,4.48-10.16C427.19,478.78,428.27,477.39,428.8,477.52Z"/><path class="cls-1" d="M328.76,566.22c-.54,0-1.26-2.74-1.68-6.37a83.19,83.19,0,0,1-.4-11.1c.12-5,1-4.89,2.08-4.9s2,.09,1.92,5c-.09,3.11-.48,7.41-.77,10.95S329.32,566.18,328.76,566.22Z"/><path class="cls-1" d="M280.71,654.41c0-1.1,4.53-2,7-2,2,0,2,.9,2,2s0,2-2,2C285.24,656.41,280.71,655.52,280.71,654.41Z"/><path class="cls-1" d="M302.49,713.06c-.13-.25.2-.73.79-1.45s1.45-1.65,2.45-2.68a60.19,60.19,0,0,1,6.62-6c1.66-1.24,2.78-1.63,3.47-1.57s.84.55,1.06,1.06a1.94,1.94,0,0,1,.18,1.49c-.19.51-.81,1.11-2.33,2.24-1.92,1.42-4.75,3.46-7.23,5a22.92,22.92,0,0,1-3.31,1.74C303.27,713.24,302.62,713.3,302.49,713.06Z"/><path class="cls-1" d="M364.69,656.9c.2-.19.86.11,1.81.75.47.32,1,.72,1.61,1.2a7.63,7.63,0,0,1,1,.91l.83.95c.57.65,1.15,1.35,1.74,2.07l.88,1.08.43.55c.08.11.12.15.24.31s.23.33.29.44a23.14,23.14,0,0,1,1.31,2.65c.35.82.66,1.6.92,2.32l.19.54c.08.31.09.41.12.59s.08.57.11.81a10.94,10.94,0,0,1,.06,1.25,3.83,3.83,0,0,1-.27,1.51,1.21,1.21,0,0,1-1.37.69c-.56,0-1,0-1.45-.5a4,4,0,0,1-.58-1.31c-.09-.31-.18-.68-.27-1.1l-.14-.64c0-.08-.06-.25,0-.2h0l0-.09-.07-.2-.8-2.24c-.28-.77-.6-1.66-.89-2.3l-.07-.16s-.11-.18-.16-.27l-.37-.61-.72-1.21c-.48-.81-.93-1.61-1.36-2.37l-.61-1.12a7.37,7.37,0,0,0-.54-.85c-.42-.6-.79-1.16-1.09-1.64C364.77,657.76,364.49,657.09,364.69,656.9Z"/><path class="cls-1" d="M449.89,673.05c-.07-.08-.16-.12-.24-.22a1.53,1.53,0,0,1-.2-.42,8.06,8.06,0,0,1-.31-1.52,47.38,47.38,0,0,1-.27-5c0-2,.1-4.08,0-6.17,0-1,0-2.06,0-3s0-1.84,0-2.65c.11-2.6.42-4,1-4.68s1.29-.65,2.12-.65a2.39,2.39,0,0,1,2.12.71c.54.69.91,2,.79,4.81,0,.88-.08,1.85-.16,2.87s-.24,2-.39,3.09a45.35,45.35,0,0,1-1.33,6.22,33,33,0,0,1-1.63,4.84,6.64,6.64,0,0,1-.81,1.41,1.57,1.57,0,0,1-.4.36C450.11,673.1,450,673.14,449.89,673.05Z"/><path class="cls-1" d="M574.68,474.35c-.42.35-2.4-1.25-4.63-3.56a55,55,0,0,1-6.22-7.69c-2.45-3.83-1.57-4.27-.64-4.81s1.71-.92,4,2.62c1.45,2.24,3.47,5.45,5.11,8.15S575.11,474,574.68,474.35Z"/><path class="cls-1" d="M467,593c0,.27-.52.65-1.53,1.31a10.46,10.46,0,0,1-2,.94l-2.36.91-.59.25-.59.28-1.33.62-2.73,1.21c-.92.39-1.78.77-2.7,1.12s-1.8.62-2.6.83c-2.62.67-3.94.64-4.63.42s-.75-.74-.85-1.28a1.36,1.36,0,0,1,.4-1.51c.56-.48,1.75-.89,4.05-1.49.73-.19,1.52-.41,2.35-.67l2.7-.87,2.84-.86,1.4-.4.75-.2.74-.16c1-.18,1.83-.29,2.63-.37s1.37-.11,2-.23C466.14,592.62,467,592.7,467,593Z"/><path class="cls-1" d="M485,318.37c.39-.39,2.41.57,4.79,2a34.32,34.32,0,0,1,6.44,5.57c2.58,2.9,1.84,3.64.93,4.21s-1.49,1.18-3.91-1.54l-5.43-6.2C486,320.44,484.65,318.76,485,318.37Z"/><path class="cls-3" d="M707,590.85l.58-.69-.78-.45c-1.27-.75-31.44-18.21-55.27-14.17-20.34,3.45-31.88,18.07-32.32,27.4,31.69-5,62.88-8.59,64.36-8.76l1-.12-1,.23c-1.45.33-32.08,7.22-63.64,13,3.48,8.66,19.15,18.66,39.55,15.2C683.28,618.41,706,592,707,590.85Z"/><path class="cls-3" d="M581.7,740.41l.63.26.14-.67c.24-1.09,5.72-27-2.82-43.22-7.29-13.86-20.56-18.74-27.39-16.85,11.08,21.69,21,43.34,21.5,44.36l.33.71-.4-.67c-.58-1-12.78-21.44-24.37-42.86-5.43,4.56-8.95,18.22-1.64,32.12C556.23,729.83,580.67,740,581.7,740.41Z"/><path class="cls-3" d="M444.07,722l.26.4.35-.33c.58-.54,14.15-13.45,15.67-26.35,1.3-11-4.49-19.17-9.23-20.81C448.9,692,446,708.61,445.9,709.4l-.09.54,0-.55c.05-.8,1.14-17.63,3-34.77-5,.48-12.52,7-13.82,18.08C433.45,705.61,443.64,721.32,444.07,722Z"/><path class="cls-3" d="M624.76,534.63l-.09-.48-.46.18c-.75.29-18.54,7.26-24.94,18.86-5.46,9.9-3.13,19.83.71,23.2,8.68-15.29,17.78-29.88,18.21-30.57l.3-.48-.24.51c-.35.73-7.86,16.21-16.16,31.7,4.9,1.46,14.53-1.84,20-11.76C628.49,554.18,624.91,535.42,624.76,534.63Z"/><path class="cls-3" d="M528.4,492.41,528,492l-.37.43c-.61.7-15,17.41-15.24,32.68-.23,13,7.51,21.91,13.25,23.27.6-20.26,2-40.05,2.06-41l0-.65,0,.65c0,.94.74,20.76.64,41,5.78-1.15,13.82-9.72,14-22.79C542.76,510.32,529,493.13,528.4,492.41Z"/><path class="cls-3" d="M465,413.56l-.13-.71-.68.26c-1.11.42-27.31,10.44-36.85,27.38-8.14,14.47-4.84,29.08.76,34.08,12.93-22.34,26.47-43.66,27.11-44.67l.44-.7-.37.74c-.53,1.07-11.73,23.71-24.12,46.35,7.18,2.21,21.36-2.52,29.53-17C470.28,442.32,465.26,414.73,465,413.56Z"/><path class="cls-3" d="M499.67,583.15l.17-.27-.29-.12c-.48-.2-11.85-4.89-20-2.35-7,2.17-10.3,7.82-10,11.1,10.85-3.24,21.59-6,22.1-6.09l.35-.09-.34.13c-.49.18-10.88,4-21.65,7.53,1.63,2.86,7.58,5.63,14.55,3.45C492.68,593.91,499.39,583.59,499.67,583.15Z"/><path class="cls-3" d="M744.42,442.46l.54-.54-.63-.44c-1-.71-25.45-17.48-45.91-15.61-17.46,1.6-28.19,13.23-29.17,21.11,27.18-2.16,53.84-3.18,55.1-3.22l.87,0-.86.13c-1.25.18-27.65,4-54.77,6.83,2.39,7.56,15,17.06,32.52,15.46C722.56,464.27,743.54,443.35,744.42,442.46Z"/><path class="cls-3" d="M729,224.75l.33-1-1-.16c-1.67-.25-41.19-6.06-64.84,8.34-20.19,12.29-26.28,32.75-22.8,42.86,31.62-18.74,63.3-35.78,64.8-36.59l1-.56-1,.66c-1.41,1-31.09,21.27-62.26,40.76,7.38,7.74,28.29,11.76,48.54-.57C715.49,264.12,728.48,226.35,729,224.75Z"/><path class="cls-3" d="M382.95,336.26l-.46.06.14.45c.22.73,5.58,18.05,16.11,24.92,9,5.86,18.55,4.35,22,.95-13.86-9.28-27-18.92-27.67-19.37l-.43-.32.46.27c.67.39,14.8,8.57,28.88,17.52,1.73-4.54-.72-13.89-9.74-19.77C401.72,334.09,383.71,336.17,382.95,336.26Z"/><path class="cls-3" d="M615.57,211.13l.26-.65-.69-.15c-1.13-.24-27.79-5.79-44.47,3.06-14.24,7.55-19.21,21.23-17.24,28.25,22.28-11.48,44.52-21.8,45.58-22.29l.73-.34-.69.41c-1,.6-22,13.23-44,25.24,4.71,5.57,18.78,9.14,33.06,1.57C604.78,237.38,615.14,212.19,615.57,211.13Z"/><path class="cls-3" d="M500.63,193.46l-.28-.32-.27.33c-.44.54-10.65,13.46-10.38,24.88.23,9.75,6.28,16.14,10.61,17-.18-15.16.26-30,.28-30.69v-.48l0,.48c.05.7,1.19,15.49,1.73,30.64,4.29-1,10-7.68,9.8-17.46C511.91,206.41,501.09,194,500.63,193.46Z"/><path class="cls-3" d="M452.53,287.65l-.44,0,.05.43c.08.71,2.16,17.5,10.71,25.54,7.3,6.86,16.34,7,20.07,4.48-11.22-10.8-21.75-21.82-22.25-22.34l-.34-.36.38.32c.55.47,12.19,10.3,23.66,20.83,2.33-3.88,1.61-12.88-5.7-19.76C470.13,288.73,453.24,287.69,452.53,287.65Z"/><path class="cls-3" d="M449.64,244.93l0-.47-.45.12c-.74.2-18.29,4.92-25.57,15.21-6.21,8.79-5.05,18.43-1.77,22,9.82-13.54,20-26.39,20.44-27l.33-.42-.28.45c-.41.66-9.13,14.51-18.62,28.28,4.48,1.9,13.94-.21,20.17-9C451.11,263.82,449.7,245.7,449.64,244.93Z"/><path class="cls-3" d="M480.44,211.19l.22-.13-.17-.2c-.28-.32-7-7.92-13.92-9-5.93-.93-10.46,2-11.44,4.56,9.19,1.55,18.12,3.44,18.54,3.53l.29.06-.3,0c-.43,0-9.51-1-18.74-2.31.16,2.71,3.55,6.91,9.49,7.84C471.37,216.6,480.07,211.41,480.44,211.19Z"/><path class="cls-3" d="M579.2,176.91l.45-.44-.51-.36c-.83-.6-20.55-14.61-37.28-13.35-14.28,1.07-23.2,10.43-24.1,16.85,22.22-1.4,44-1.88,45-1.9l.71,0-.71.09c-1,.13-22.63,2.92-44.81,4.85,1.85,6.21,12,14.13,26.35,13.06C561.06,194.43,578.47,177.62,579.2,176.91Z"/><path class="cls-3" d="M390.82,100.45l-.47-.28-.19.51c-.31.83-7.62,20.58-2.78,34.35,4.14,11.76,14,17.13,19.61,16.44-6.21-18.35-11.54-36.55-11.8-37.41l-.17-.59.24.57c.34.83,7.58,18.36,14.23,36.56,4.8-3,9.15-13.31,5-25.1C409.65,111.73,391.59,100.91,390.82,100.45Z"/><path class="cls-3" d="M537.81,74.9l.24-.85-.87-.09c-1.43-.14-35.29-3.32-54.77,10-16.62,11.35-20.89,29-17.48,37.46,26.06-17.34,52.23-33.24,53.47-34l.86-.52-.8.61c-1.15.88-25.49,19.47-51.13,37.43,6.62,6.26,24.58,8.74,41.25-2.65C528.06,109,537.42,76.28,537.81,74.9Z"/><path class="cls-3" d="M339.13,14.81l-.55-.69-.58.67c-1,1.09-23.35,27-23.81,50.77-.4,20.27,11.6,34.1,20.53,36.23,1-31.51,3.24-62.28,3.34-63.74l.07-1,0,1c0,1.46,1.09,32.3.85,63.82,9-1.77,21.53-15.07,21.93-35.4C361.4,42.73,340,15.94,339.13,14.81Z"/><path class="cls-3" d="M111.16,95l-.8-.65-.51.9c-.83,1.48-20.22,36.62-15,64,4.45,23.34,21.56,36.27,32.3,36.56-6.49-36.37-11.37-72.18-11.6-73.88l-.16-1.17.28,1.15c.41,1.66,9.06,36.76,16.42,73,9.89-4.21,21-22.48,16.57-45.89C143.44,121.62,112.47,96.08,111.16,95Z"/><path class="cls-3" d="M237.51,246.74l-.41-.41-.33.48c-.54.79-13.23,19.44-11.74,35,1.27,13.29,10.17,21.43,16.17,22.15-1.73-20.69-2.59-41-2.63-42l0-.66.1.66c.14,1,3.15,21,5.38,41.69,5.75-1.84,12.95-11.48,11.67-24.82C254.19,263.32,238.19,247.41,237.51,246.74Z"/><path class="cls-3" d="M195.78,185.58l-.63,0,.06.63c.1,1,2.57,25.26,14.62,37.1,10.29,10.1,23.29,10.65,28.75,7.08-15.8-15.9-30.62-32.08-31.32-32.85l-.48-.53.54.47c.78.69,17.22,15.21,33.41,30.72,3.48-5.52,2.72-18.48-7.59-28.62C221.08,187.7,196.81,185.66,195.78,185.58Z"/><path class="cls-3" d="M207.83,86l-.55,0,.05.55c.09.9,2.24,22.06,12.77,32.4,9,8.82,20.34,9.3,25.11,6.18-13.8-13.89-26.74-28-27.35-28.69l-.42-.46.47.41c.68.6,15,13.28,29.17,26.83,3-4.82,2.38-16.14-6.63-25C229.93,87.81,208.73,86,207.83,86Z"/><path class="cls-3" d="M275.07,204.39l-.4.12.19.38c.31.62,7.7,15.15,18.09,19.63,8.86,3.82,17.11,1,19.66-2.53-13.71-6.11-26.86-12.64-27.49-12.95l-.43-.21.45.17c.65.24,14.43,5.33,28.28,11.11.84-4.29-2.76-12.2-11.65-16C291.37,199.6,275.73,204.2,275.07,204.39Z"/><path class="cls-3" d="M283.56,368.66l.09.78.75-.23c1.23-.37,30.37-9.25,42-26.89,9.91-15.06,7.44-31.14,1.74-37-15.69,23.23-32,45.31-32.73,46.35l-.53.72.45-.77c.65-1.12,14.49-24.8,29.62-48.4-7.61-2.93-23.33,1.12-33.27,16.23C280,337.11,283.41,367.38,283.56,368.66Z"/><path class="cls-3" d="M328.72,464.47l-.46.18.25.43c.42.7,10.34,17.17,22.94,21.57,10.75,3.75,20.22-.24,22.92-4.63-16.64-6-32.67-12.6-33.43-12.91l-.52-.21.54.16c.79.23,17.42,5.06,34.21,10.69.62-5.11-4.28-14.12-15.06-17.88C347.5,457.46,329.48,464.19,328.72,464.47Z"/><path class="cls-3" d="M35,244.92l-.59.21.31.55c.51.9,12.56,22.07,28.36,28,13.49,5.09,25.61.33,29.16-5.14-20.88-8.16-41-17-41.92-17.39l-.66-.29.68.22c1,.31,21.9,7,43,14.61.95-6.45-5-18-18.51-23.11C59,236.63,35.94,244.58,35,244.92Z"/><path class="cls-3" d="M4.94,336.93l-.53.23.31.48c.51.79,12.76,19.29,27.49,23.73,12.57,3.8,23.29-1.27,26.18-6.46C38.93,348.77,20.13,342,19.24,341.67l-.61-.22.63.15c.92.22,20.33,5,39.95,10.64.47-5.92-5.63-16.06-18.24-19.87C26.25,327.93,5.81,336.56,4.94,336.93Z"/><path class="cls-3" d="M11.66,462.94l-.1.76.77,0c1.26,0,31.08-1.39,46.4-15.31,13.07-11.88,14.64-27.75,10.65-34.68C48.83,431.91,28,448.91,27,449.72l-.68.56.62-.63c.89-.91,19.8-20,39.9-38.74-6.51-4.64-22.43-4.62-35.54,7.3C16,432.13,11.83,461.69,11.66,462.94Z"/><path class="cls-3" d="M117.72,689.3l.18.64.6-.29c1-.47,24.29-11.65,31.77-27.94,6.38-13.9,2.25-27.08-3.28-31.24-10.18,21.49-21,42.1-21.52,43.07l-.35.67.28-.71c.41-1,9-22.66,18.65-44.39-6.76-1.48-19.43,3.93-25.83,17.87C110.73,663.29,117.43,688.25,117.72,689.3Z"/><path class="cls-3" d="M74.51,457.24l-.29-.19-.14.32c-.23.53-5.59,13-2.94,22,2.27,7.7,8.45,11.49,12.08,11.23-3.38-12-6.21-23.91-6.34-24.47l-.09-.39.13.38c.19.55,4.26,12.07,7.94,24,3.19-1.74,6.33-8.26,4.06-16C86.25,465.13,75,457.56,74.51,457.24Z"/><path class="cls-3" d="M187.11,400l-.42.08.15.4c.24.65,6,16,15.85,21.58,8.41,4.8,16.95,2.92,19.88-.33-13-7.62-25.37-15.59-26-16l-.4-.26.43.22c.62.31,13.79,6.92,27,14.23,1.31-4.18-1.4-12.47-9.83-17.28C203.9,397.07,187.79,399.9,187.11,400Z"/><path class="cls-3" d="M137,304.16l-.43-.18-.11.45c-.17.74-4.22,18.32,1.41,29.49,4.8,9.53,13.79,13,18.47,11.81-7.29-14.91-13.82-29.78-14.13-30.49l-.21-.49.26.46c.38.67,8.45,14.76,16.1,29.5,3.75-3,6.31-12.31,1.5-21.87C154.27,311.67,137.73,304.46,137,304.16Z"/><path class="cls-3" d="M108.92,472.5l-.48.45.53.39c.86.64,21.33,15.64,38.89,14.58,15-.9,24.49-10.58,25.54-17.29-23.33,1.13-46.18,1.29-47.26,1.29h-.75l.74-.08c1.08-.12,23.78-2.71,47.07-4.39-1.84-6.54-12.39-15-27.43-14.1C128.22,454.41,109.7,471.76,108.92,472.5Z"/><path class="cls-3" d="M10.6,551.19l-.46.28.36.41c.58.67,14.47,16.32,28.81,18.53,12.24,1.88,21.58-4.27,23.6-9.5-19-3.15-37.45-7-38.33-7.18l-.6-.13.61.06c.89.09,19.64,2,38.71,4.65-.35-5.59-7.38-14.26-19.66-16.14C29.3,540,11.35,550.73,10.6,551.19Z"/><path class="cls-3" d="M62.19,603.78v.38l.37-.07c.61-.11,15.1-2.72,21.67-10.54,5.61-6.67,5.33-14.53,2.92-17.65-8.84,10.26-17.9,19.94-18.33,20.4l-.3.32.26-.35c.38-.5,8.36-11.09,17-21.56-3.49-1.84-11.26-.78-16.89,5.91C62.29,588.44,62.2,603.16,62.19,603.78Z"/><path class="cls-3" d="M123.7,418.46l.17.34.3-.23c.5-.38,12.16-9.36,14.41-19.31,1.92-8.5-1.94-15.35-5.51-17-3.14,13.18-6.74,25.94-6.91,26.54l-.12.42.07-.43c.11-.62,2.33-13.69,5.15-26.94-3.94,0-10.36,4.48-12.29,13C116.74,404.79,123.42,417.9,123.7,418.46Z"/><path class="cls-3" d="M220.29,621.25l.18.59.55-.28c.91-.46,22.26-11.34,28.83-26.6,5.61-13,1.49-25.15-3.73-28.89-9,20.15-18.54,39.49-19,40.41l-.31.63.24-.66c.35-1,7.82-21.21,16.3-41.57-6.3-1.23-17.93,4.07-23.55,17.14C213.23,597.29,220,620.28,220.29,621.25Z"/><path class="cls-3" d="M107.79,598.54l-.3.2.25.26c.4.42,10,10.33,19.53,11.36,8.12.88,14.1-3.44,15.27-6.95-12.61-1.52-24.88-3.52-25.46-3.61l-.4-.07.41,0c.59,0,13,.71,25.64,1.93-.39-3.67-5.28-9.18-13.43-10.06C119.78,590.6,108.27,598.22,107.79,598.54Z"/><path class="cls-3" d="M42.51,516.81l-.23.32.35.17c.58.28,14.22,6.78,24.38,4.21,8.67-2.2,13.15-8.92,13-13-13.53,3.25-26.88,5.89-27.51,6l-.44.09.42-.13c.62-.19,13.62-4.23,27.06-7.81-1.81-3.62-8.92-7.4-17.62-5.2C51.79,504.08,42.89,516.29,42.51,516.81Z"/><path class="cls-3" d="M198.46,727.69V728l.33-.05c.54-.09,13.34-2.23,19.21-9,5-5.82,4.86-12.75,2.77-15.52-7.91,8.95-16,17.38-16.38,17.78l-.26.28.23-.3c.34-.44,7.49-9.68,15.18-18.81-3.05-1.66-9.92-.81-14.95,5C198.71,714.17,198.47,727.14,198.46,727.69Z"/><path class="cls-3" d="M331.3,604.67l.26.27.22-.3c.36-.5,8.83-12.31,8.11-22.36-.61-8.58-6.21-14-10.06-14.52.79,13.35,1,26.44,1,27.06v.43l-.05-.42c-.08-.62-1.7-13.6-2.81-26.93-3.73,1.1-8.52,7.19-7.91,15.8C320.82,593.73,330.87,604.23,331.3,604.67Z"/><path class="cls-3" d="M167.87,638.65l-.5.11.19.48c.31.78,7.82,19.18,20,25.67,10.37,5.54,20.67,3,24.12-1.07-16-8.81-31.33-18.07-32.06-18.51l-.5-.3.53.25c.77.36,17,7.94,33.2,16.36,1.45-5.12-2.12-15.09-12.52-20.65C188.15,634.49,168.69,638.48,167.87,638.65Z"/><path class="cls-3" d="M264,746.19l-.08.49h.5c.82,0,20.18-.57,30.26-9.44,8.61-7.57,9.79-17.85,7.28-22.38-13.52,11.61-27.21,22.41-27.86,22.92l-.45.35.41-.4c.59-.58,13.06-12.77,26.3-24.7-4.17-3.08-14.5-3.23-23.13,4.36C267.17,726.25,264.14,745.38,264,746.19Z"/><path class="cls-3" d="M240.57,657.79l-.27.27.31.22c.51.36,12.51,8.73,22.62,7.88,8.63-.73,14-6.43,14.49-10.32-13.43,1-26.61,1.37-27.23,1.39h-.43l.43-.06c.62-.09,13.67-1.89,27.08-3.18-1.15-3.75-7.35-8.48-16-7.76C251.45,647.1,241,657.36,240.57,657.79Z"/><path class="cls-3" d="M210.65,513.34l.08.35.34-.14c.55-.22,13.5-5.59,18-14.19,3.87-7.34,2-14.6-.85-17-6.16,11.34-12.63,22.18-12.94,22.7l-.21.35.17-.37c.25-.54,5.54-12,11.42-23.5-3.62-1-10.64,1.55-14.52,8.92C207.63,499,210.52,512.76,210.65,513.34Z"/><path class="cls-3" d="M253.18,416.59l-.13.34.35.07c.58.12,14.33,2.87,22.88-1.76,7.3-3.95,9.8-11,8.76-14.62-11.42,6-22.84,11.41-23.38,11.66l-.37.18.35-.22c.51-.31,11.28-6.9,22.56-13.17-2.45-2.85-9.71-4.63-17-.67C258.63,403,253.4,416,253.18,416.59Z"/><path class="cls-3" d="M293.38,585.38l-.26-.39-.34.32c-.55.52-13.5,13-14.9,25.32-1.2,10.56,4.39,18.35,8.94,19.9,2.06-16.39,4.73-32.33,4.86-33.09l.09-.52,0,.53c0,.76-1,16.9-2.68,33.34,4.78-.49,12-6.81,13.17-17.4C303.63,601,293.8,586,293.38,585.38Z"/><path class="cls-3" d="M332.77,621.16l-.47-.06,0,.47c0,.78.83,19.18,9.41,28.64,7.32,8.08,17.11,9.06,21.39,6.6-11.23-12.69-21.71-25.55-22.2-26.16l-.34-.42.39.38c.56.55,12.34,12.23,23.87,24.65,2.86-4,2.86-13.83-4.48-21.93C351.78,623.86,333.54,621.27,332.77,621.16Z"/><path class="cls-3" d="M175.62,170l-.18.32.35.12c.57.2,14,4.85,23.28,1.36,7.89-3,11.38-9.74,10.83-13.52-12.32,4.48-24.55,8.36-25.13,8.54l-.4.13.38-.17c.56-.24,12.31-5.4,24.52-10.17-2.07-3.2-9.14-6-17.05-3C183,157.05,175.92,169.43,175.62,170Z"/><path class="cls-3" d="M704.46,501l.53-.24-.33-.48c-.54-.78-13.46-19.19-28.51-23.29-12.84-3.5-23.56,1.93-26.35,7.27,19.9,5.68,39.13,12,40,12.33l.63.21-.65-.14c-.94-.2-20.73-4.48-40.77-9.68-.31,6,6.14,16.12,19,19.63C683.12,510.74,703.59,501.43,704.46,501Z"/><path class="cls-3" d="M599,510.51l.41.12,0-.43c.07-.7,1.73-17.18-4.69-26.71-5.48-8.13-14.07-10.26-18.19-8.63,8.37,12.75,16,25.54,16.4,26.15l.25.42-.29-.39c-.43-.56-9.41-12.48-18.08-25-3.07,3.2-4.33,11.95,1.16,20.1C582.42,505.66,598.32,510.32,599,510.51Z"/><path class="cls-4" d="M686.71,248.63A120.39,120.39,0,0,1,601.4,451.55c0-40.06,55.36-78,56.22-78.62h0c11.74-2.63,26.25-9,34-24.6,13.23-26.46,24.8-94.18-50.58-102.71-41.24-4.67-42,70-42,70s-.78-74.7-42-70c-75.39,8.54-63.81,76.26-50.58,102.71,7.78,15.56,22.29,22,34,24.6h0c.86.59,56.19,38.56,56.21,78.62a120.4,120.4,0,0,1,2.34-240.77c44.35,0,56.24,11.66,67.35,10.13s29-4.88,22,1.84S678,237.67,686.71,248.63Z"/><path class="cls-5" d="M645,280.62c24.12,0,34.24,11.93,34.24,25.68,0,13.56-15.73,25.34-33.46,25.67H645c-18.05,0-32.68-11.15-32.68-24.9a19.91,19.91,0,0,1,.47-4.3v0A33.42,33.42,0,0,1,627.32,285l0,0A37.17,37.17,0,0,1,645,280.62Zm21,25.68c0-10.32-10.8-18.68-24.12-18.68S617.74,296,617.74,306.3,628.54,325,641.86,325,666,316.61,666,306.3Z"/><ellipse cx="641.86" cy="306.3" rx="24.12" ry="18.68"/><path class="cls-6" d="M553.15,332c18,0,32.68-11.15,32.68-24.9a20.22,20.22,0,0,0-.68-5.15,25.52,25.52,0,0,1,1.07,3.21s-3.11-21-20.23-28.79c-16-7.27-37.35-4.67-46.69,1.56s-10.89,11.67-10.89,11.67-2.33,4.67,0,7.78a3,3,0,0,0,2.33,1.32s1.56,33.27,41.56,33.3h.85ZM645,332h.78c40.07,0,41.63-33.3,41.63-33.3a3,3,0,0,0,2.33-1.32c2.33-3.11,0-7.78,0-7.78s-1.56-5.45-10.89-11.67-30.71-8.82-46.69-1.56c-17.12,7.78-20,28.58-20,28.58s.19-.81.65-2.14a19.91,19.91,0,0,0-.47,4.3C612.29,320.83,626.92,332,645,332Zm-3.89-86.37c75.38,8.54,63.81,76.26,50.58,102.71-7.78,15.56-22.29,22-34,24.6h0a78.53,78.53,0,0,1-17.31,1.84c-11.67,0-28-8.86-36.57-24.43H594.4c-8.56,15.56-24.9,24.43-36.57,24.43a78.53,78.53,0,0,1-17.31-1.84h0c-11.74-2.63-26.25-9-34-24.6C493.24,321.86,481.66,254.14,557,245.6c41.24-4.67,42,70,42,70S599.84,240.93,641.08,245.6Z"/><path class="cls-7" d="M643.4,280.62c34.6-1.55,38.82,14.19,39.31,15.17s2.65,3,4.67,2.88c0,0-1.56,33.3-41.63,33.3h0c17.73-.33,33.46-12.12,33.46-25.67,0-13.75-10.12-25.68-34.24-25.68A37.17,37.17,0,0,0,627.36,285,35.09,35.09,0,0,1,643.4,280.62Z"/><path class="cls-6" d="M640.31,374.77a78.53,78.53,0,0,0,17.31-1.84c-.86.59-56.2,38.56-56.22,78.62l-2.33,0-2.34,0c0-40.06-55.35-78-56.21-78.62a78.53,78.53,0,0,0,17.31,1.84c11.67,0,28-8.86,36.57-24.43h9.34C612.29,365.91,628.63,374.77,640.31,374.77Z"/><path d="M627.32,285a33.42,33.42,0,0,0-14.54,17.74C614.36,295.61,619.77,289.1,627.32,285Z"/><path d="M612.11,304.92s2.9-20.8,20-28.58c16-7.27,37.35-4.67,46.69,1.56s10.89,11.67,10.89,11.67,2.33,4.67,0,7.78a3,3,0,0,1-2.33,1.32c-2,.1-4.12-1.78-4.67-2.88S678,279.07,643.4,280.62a35.09,35.09,0,0,0-16,4.38l0,0c-7.55,4.08-13,10.58-14.54,17.74v0C612.3,304.11,612.11,304.92,612.11,304.92Z"/><path class="cls-5" d="M585.16,301.92a20.22,20.22,0,0,1,.68,5.15c0,13.75-14.64,24.9-32.68,24.9h-.85c-17.7-.37-33.39-12.14-33.39-25.67,0-13.75,10.12-25.68,34.24-25.68a37.25,37.25,0,0,1,16.95,4l.54.29A34,34,0,0,1,585.16,301.92Zm-4.77,4.37c0-10.32-10.8-18.68-24.12-18.68S532.14,296,532.14,306.3,542.95,325,556.27,325,580.39,316.61,580.39,306.3Z"/><path d="M566,276.34c17.12,7.78,20.23,28.79,20.23,28.79a25.52,25.52,0,0,0-1.07-3.21c-1.83-6.87-7.18-13.07-14.51-17l-.54-.29a35.27,35.27,0,0,0-15.38-4c-34.6-1.55-38.82,14.19-39.31,15.17s-2.65,3-4.67,2.88a3,3,0,0,1-2.33-1.32c-2.33-3.11,0-7.78,0-7.78s1.56-5.45,10.89-11.67S550,269.07,566,276.34Z"/><path d="M570.65,284.94c7.33,3.91,12.68,10.12,14.51,17A34,34,0,0,0,570.65,284.94Z"/><ellipse cx="556.27" cy="306.3" rx="24.12" ry="18.68"/><path class="cls-7" d="M515.41,295.79c.49-1,4.72-16.72,39.31-15.17a35.27,35.27,0,0,1,15.38,4,37.25,37.25,0,0,0-16.95-4c-24.12,0-34.24,11.93-34.24,25.68,0,13.53,15.69,25.31,33.39,25.67h0c-40,0-41.56-33.3-41.56-33.3C512.76,298.77,514.86,296.89,515.41,295.79Z"/><path class="cls-8" d="M657.62,372.93a78.53,78.53,0,0,1-17.31,1.84c-11.67,0-28-8.86-36.57-24.43H594.4c-8.56,15.56-24.9,24.43-36.57,24.43a78.53,78.53,0,0,1-17.31-1.84h0c-11.74-2.63-26.25-9-34-24.6C493.24,321.86,481.66,254.14,557,245.6c41.24-4.67,42,70,42,70s.78-74.7,42-70c75.38,8.54,63.81,76.26,50.58,102.71-7.78,15.56-22.29,22-34,24.6Z"/><path class="cls-9" d="M580,337.81s-4.67-3.11-7-.78,1.56,1.56,1.56,1.56,3.89,7,8.56,7.78c4.45.74,13.12,4.31,16,6.66,2.83-2.35,11.5-5.92,16-6.66,4.67-.78,8.56-7.78,8.56-7.78s3.89.78,1.56-1.56-7,.78-7,.78"/><path class="cls-9" d="M599.06,350.35c-1.81-2-9.51-5.72-13.62-7.09a7.92,7.92,0,0,1-5.45-5.45s13.37-14.11,19.06-14.75c5.69.64,19.06,14.75,19.06,14.75a7.92,7.92,0,0,1-5.45,5.45C608.58,344.63,600.87,348.4,599.06,350.35Z"/><rect class="cls-10" x="618.86" y="437.67" width="10.89" height="23.34" rx="5.45" ry="5.45"/><rect class="cls-10" x="629.75" y="437.67" width="10.89" height="23.34" rx="5.45" ry="5.45"/><rect class="cls-10" x="640.65" y="437.67" width="10.89" height="23.34" rx="5.45" ry="5.45"/><rect class="cls-10" x="568.37" y="437.67" width="10.89" height="23.34" rx="5.45" ry="5.45" transform="translate(1147.64 898.69) rotate(180)"/><rect class="cls-10" x="557.48" y="437.67" width="10.89" height="23.34" rx="5.45" ry="5.45" transform="translate(1125.85 898.69) rotate(-180)"/><rect class="cls-10" x="546.59" y="437.67" width="10.89" height="23.34" rx="5.45" ry="5.45" transform="translate(1104.07 898.69) rotate(-180)"/></svg>