<svg id="Layer_1" data-name="Layer 1" xmlns="http://www.w3.org/2000/svg" viewBox="0 0 70 70"><defs><style>.cls-1{fill:#fff;}.cls-2{fill:#931959;}</style></defs><title>mute</title><circle class="cls-1" cx="35" cy="35" r="35"/><path class="cls-2" d="M24.77,39.81a.91.91,0,0,0-.68-.31H20.91a.91.91,0,0,1-.91-.91V31.41a.91.91,0,0,1,.91-.91h3.18a.91.91,0,0,0,.68-.31l8.64-9.87a.91.91,0,0,1,1.59.6V49.08a.91.91,0,0,1-1.59.6Z"/><path class="cls-2" d="M45.59,35l4.08-4.08a1.12,1.12,0,0,0-1.59-1.59L44,33.41l-4.08-4.08a1.12,1.12,0,0,0-1.59,1.59L42.41,35l-4.08,4.08a1.12,1.12,0,1,0,1.59,1.59L44,36.59l4.08,4.08a1.12,1.12,0,0,0,1.59-1.59Z"/></svg>