<svg id="Layer_1" data-name="Layer 1" xmlns="http://www.w3.org/2000/svg" viewBox="0 0 70 70"><defs><style>.cls-1{fill:#fff;}.cls-2{fill:#931959;}</style></defs><title>sound</title><circle class="cls-1" cx="35" cy="35" r="35"/><path class="cls-2" d="M24.77,39.81a.91.91,0,0,0-.68-.31H20.91a.91.91,0,0,1-.91-.91V31.41a.91.91,0,0,1,.91-.91h3.18a.91.91,0,0,0,.68-.31l8.64-9.87a.91.91,0,0,1,1.59.6V49.08a.91.91,0,0,1-1.59.6Z"/><path class="cls-2" d="M39.88,49a1.12,1.12,0,0,1-.39-2.18,12.65,12.65,0,0,0,0-23.73A1.12,1.12,0,0,1,40.27,21a14.9,14.9,0,0,1,0,28A1.11,1.11,0,0,1,39.88,49Z"/><path class="cls-2" d="M39.88,40.58a1.12,1.12,0,0,1-.79-1.92,5.14,5.14,0,0,0,0-7.34,1.12,1.12,0,0,1,1.59-1.59,7.39,7.39,0,0,1,0,10.53A1.12,1.12,0,0,1,39.88,40.58Z"/></svg>