<svg id="Layer_1" data-name="Layer 1" xmlns="http://www.w3.org/2000/svg" viewBox="0 0 94 73"><defs><style>.cls-1{fill:#550a34;}.cls-2{fill:#fbc100;}.cls-3{fill:#931959;}</style></defs><title>bird3</title><path class="cls-1" d="M80.25,24.12s6.25,7.94,6.25,12c0,1.37-.33,2.87-1.07,3.47,0,1.39-2.71,7.46-6,8.53"/><path class="cls-1" d="M13.75,24.12s-6.25,7.94-6.25,12c0,1.37.33,2.87,1.07,3.47,0,1.39,2.71,7.46,6,8.53"/><path class="cls-2" d="M41.45,72.88A1.46,1.46,0,0,1,40,71.42V67.8a1.46,1.46,0,0,1,2.92,0v3.62A1.46,1.46,0,0,1,41.45,72.88Z"/><path class="cls-3" d="M41.45,66.46a1.33,1.33,0,0,1,1.33,1.33v3.62a1.33,1.33,0,1,1-2.67,0V67.8a1.33,1.33,0,0,1,1.33-1.33m0-.25a1.59,1.59,0,0,0-1.58,1.58v3.62a1.58,1.58,0,1,0,3.17,0V67.8a1.59,1.59,0,0,0-1.58-1.58Z"/><path class="cls-2" d="M38.53,72.88a1.46,1.46,0,0,1-1.46-1.46V67.8a1.46,1.46,0,0,1,2.92,0v3.62A1.46,1.46,0,0,1,38.53,72.88Z"/><path class="cls-3" d="M38.53,66.46a1.33,1.33,0,0,1,1.33,1.33v3.62a1.33,1.33,0,0,1-2.67,0V67.8a1.33,1.33,0,0,1,1.33-1.33m0-.25a1.59,1.59,0,0,0-1.58,1.58v3.62a1.58,1.58,0,0,0,3.17,0V67.8a1.59,1.59,0,0,0-1.58-1.58Z"/><path class="cls-2" d="M35.61,72.88a1.46,1.46,0,0,1-1.46-1.46V67.8a1.46,1.46,0,0,1,2.92,0v3.62A1.46,1.46,0,0,1,35.61,72.88Z"/><path class="cls-3" d="M35.61,66.46a1.33,1.33,0,0,1,1.33,1.33v3.62a1.33,1.33,0,0,1-2.67,0V67.8a1.33,1.33,0,0,1,1.33-1.33m0-.25A1.59,1.59,0,0,0,34,67.8v3.62a1.58,1.58,0,0,0,3.17,0V67.8a1.59,1.59,0,0,0-1.58-1.58Z"/><path class="cls-2" d="M52.54,72.88a1.46,1.46,0,0,1-1.46-1.46V67.8a1.46,1.46,0,0,1,2.92,0v3.62A1.46,1.46,0,0,1,52.54,72.88Z"/><path class="cls-3" d="M52.54,66.46a1.33,1.33,0,0,1,1.33,1.33v3.62a1.33,1.33,0,1,1-2.67,0V67.8a1.33,1.33,0,0,1,1.33-1.33m0-.25A1.59,1.59,0,0,0,51,67.8v3.62a1.58,1.58,0,1,0,3.17,0V67.8a1.59,1.59,0,0,0-1.58-1.58Z"/><path class="cls-2" d="M55.46,72.88A1.46,1.46,0,0,1,54,71.42V67.8a1.46,1.46,0,0,1,2.92,0v3.62A1.46,1.46,0,0,1,55.46,72.88Z"/><path class="cls-3" d="M55.46,66.46A1.33,1.33,0,0,1,56.8,67.8v3.62a1.33,1.33,0,0,1-2.67,0V67.8a1.33,1.33,0,0,1,1.33-1.33m0-.25a1.59,1.59,0,0,0-1.58,1.58v3.62a1.58,1.58,0,0,0,3.17,0V67.8a1.59,1.59,0,0,0-1.58-1.58Z"/><path class="cls-2" d="M58.38,72.88a1.46,1.46,0,0,1-1.46-1.46V67.8a1.46,1.46,0,0,1,2.92,0v3.62A1.46,1.46,0,0,1,58.38,72.88Z"/><path class="cls-3" d="M58.38,66.46a1.33,1.33,0,0,1,1.33,1.33v3.62a1.33,1.33,0,1,1-2.67,0V67.8a1.33,1.33,0,0,1,1.33-1.33m0-.25A1.59,1.59,0,0,0,56.8,67.8v3.62a1.58,1.58,0,1,0,3.17,0V67.8a1.59,1.59,0,0,0-1.58-1.58Z"/><path class="cls-3" d="M21.52,11A35,35,0,1,0,47,0C34.11,0,30.65,3.39,27.42,2.94S19,1.53,21,3.48,24,7.82,21.52,11Z"/></svg>