<svg id="Layer_1" data-name="Layer 1" xmlns="http://www.w3.org/2000/svg" viewBox="0 0 70 70"><defs><style>.cls-1{fill:#fff;}.cls-2{fill:#55acee;}</style></defs><title>twitter</title><circle class="cls-1" cx="35" cy="35" r="35"/><path class="cls-2" d="M50,25.7a12.3,12.3,0,0,1-3.54,1,6.17,6.17,0,0,0,2.71-3.41,12.32,12.32,0,0,1-3.91,1.49,6.16,6.16,0,0,0-10.49,5.61,17.47,17.47,0,0,1-12.69-6.43A6.16,6.16,0,0,0,24,32.15a6.13,6.13,0,0,1-2.79-.77v.08a6.16,6.16,0,0,0,4.94,6,6.17,6.17,0,0,1-2.78.11,6.16,6.16,0,0,0,5.75,4.27,12.35,12.35,0,0,1-7.64,2.63A12.53,12.53,0,0,1,20,44.43a17.42,17.42,0,0,0,9.43,2.77c11.32,0,17.51-9.38,17.51-17.51q0-.4,0-.8A12.51,12.51,0,0,0,50,25.7Z"/></svg>